<?xml version="1.0" standalone="no"?>
<!DOCTYPE svg PUBLIC "-//W3C//DTD SVG 20010904//EN"
 "http://www.w3.org/TR/2001/REC-SVG-20010904/DTD/svg10.dtd">
<svg version="1.0" xmlns="http://www.w3.org/2000/svg"
 width="450.000000pt" height="450.000000pt" viewBox="0 0 450.000000 450.000000"
 preserveAspectRatio="xMidYMid meet">

<g transform="translate(0.000000,450.000000) scale(0.100000,-0.100000)"
fill="#000000" stroke="none">
<path d="M0 3465 c0 -758 3 -1035 11 -1035 8 0 8 -4 1 -12 -15 -20 -16 -659
-1 -669 10 -6 10 -11 1 -21 -15 -19 -17 -1578 -2 -1578 5 0 10 -9 10 -20 0
-11 -4 -20 -10 -20 -5 0 -10 -21 -10 -46 0 -27 4 -43 10 -39 5 3 10 -1 10 -9
0 -9 7 -16 15 -16 8 0 15 7 15 15 0 8 7 15 15 15 8 0 15 -7 15 -15 0 -8 6 -15
14 -15 9 0 12 7 9 20 -4 14 0 20 10 20 22 0 32 -20 16 -31 -19 -12 241 -10
264 2 11 6 17 6 17 -1 0 -17 27 -11 35 8 6 16 7 16 19 0 16 -22 36 -23 36 -3
0 8 5 15 11 15 6 0 9 -7 5 -15 -5 -13 43 -15 384 -15 337 1 390 3 390 15 0 8
5 15 10 15 6 0 10 -7 10 -15 0 -13 88 -15 691 -14 669 0 693 0 730 20 22 10
39 17 39 14 0 -3 14 2 31 11 21 10 28 19 20 23 -8 5 4 16 33 31 24 14 42 28
40 32 -7 11 8 10 25 -1 17 -11 28 -111 12 -111 -6 0 -11 6 -11 13 -1 31 -17
41 -49 27 -17 -7 -28 -16 -25 -21 3 -5 -1 -9 -9 -9 -8 0 -30 -7 -48 -15 -30
-13 22 -14 483 -14 583 0 502 -11 646 81 35 22 66 37 69 35 5 -6 -14 -19 -112
-76 l-70 -41 155 0 c165 0 234 15 244 52 3 15 16 20 41 17 3 0 27 15 53 34
150 107 155 110 164 94 10 -19 38 -11 38 10 0 9 -6 13 -14 10 -8 -3 -16 2 -19
15 -4 14 0 22 14 25 19 5 19 27 19 1159 0 916 -3 1154 -12 1154 -9 0 -8 4 2
10 12 8 11 10 -5 10 -25 0 -65 27 -65 43 0 7 12 18 27 25 36 16 51 15 27 -3
-18 -14 -18 -14 4 -8 21 5 22 11 22 90 0 64 -3 83 -12 77 -10 -6 -10 -4 0 7 6
7 12 19 12 26 0 11 -26 13 -125 11 -80 -2 -124 1 -122 7 2 6 53 10 125 10
l121 0 0 78 0 78 -222 -3 c-122 -1 -228 2 -236 6 -10 6 -12 5 -7 -3 6 -8 -3
-11 -29 -9 -20 1 -39 6 -42 11 -2 4 -11 3 -19 -4 -11 -9 -14 -9 -14 1 0 7 -7
10 -16 6 -9 -4 -24 -1 -32 6 -12 10 -14 10 -8 1 5 -9 0 -13 -18 -13 -13 0 -27
6 -29 13 -3 6 -6 7 -6 2 -1 -7 -16 -9 -37 -7 -29 4 -35 2 -30 -9 5 -9 3 -9 -6
1 -13 15 -42 18 -71 7 -8 -3 -31 -2 -51 3 -21 4 -34 4 -30 -1 3 -5 -4 -9 -16
-9 -12 0 -19 4 -16 9 8 13 -64 22 -85 10 -11 -5 -19 -6 -19 -1 0 4 -26 8 -57
8 -32 0 -114 4 -183 7 -69 4 -168 10 -220 12 -52 3 -153 11 -225 17 -71 6
-172 10 -222 9 -81 -2 -92 -1 -87 13 8 20 0 20 -20 1 -13 -13 -15 -12 -21 14
-4 21 -15 31 -38 39 l-32 10 29 1 c21 1 26 4 18 14 -6 6 -13 29 -17 50 -4 20
-13 37 -20 37 -7 0 -15 10 -18 21 -4 16 -11 20 -23 15 -10 -4 -21 -2 -24 5 -5
7 -13 8 -26 1 -21 -10 -44 -6 -44 9 0 5 9 9 20 9 18 0 20 7 20 85 0 67 3 85
14 85 11 0 12 7 5 33 -5 19 -10 69 -10 113 -3 130 -1 151 16 151 8 0 15 -6 15
-12 0 -8 19 -8 72 3 52 11 86 12 123 5 58 -10 511 -10 595 0 30 4 91 9 135 12
92 6 261 22 289 28 24 5 34 27 13 27 -8 0 -30 6 -48 14 -19 8 -37 13 -40 13
-3 -1 -12 3 -20 9 -17 14 -60 23 -119 25 -72 2 -88 8 -93 36 -4 19 1 27 22 35
105 41 115 53 79 89 -32 32 -72 49 -116 49 -60 1 -118 18 -164 49 -24 15 -69
41 -100 56 -53 26 -73 45 -48 45 6 0 10 7 10 15 0 8 7 15 16 15 9 0 23 8 30
18 12 16 13 15 14 -7 0 -23 1 -23 18 -8 10 10 26 17 34 17 27 0 48 11 48 26 0
11 7 13 26 8 18 -5 25 -3 20 4 -4 7 5 9 29 5 20 -3 35 -1 35 4 0 6 14 10 31
11 17 0 36 5 42 10 7 5 25 12 40 16 22 5 27 4 21 -6 -4 -7 -4 -10 1 -6 4 4 14
3 21 -3 8 -7 14 -7 19 1 3 5 1 10 -4 10 -6 0 -11 5 -11 11 0 8 6 7 17 -2 12
-10 40 -13 107 -10 50 2 93 7 96 11 3 4 22 10 43 14 21 4 35 11 32 17 -4 5 3
9 14 9 12 0 21 -7 21 -15 0 -15 18 -15 87 0 18 4 40 4 50 0 30 -13 54 -13 67
0 16 17 116 18 118 2 0 -6 2 -18 2 -25 1 -9 19 -15 53 -16 29 -2 50 1 47 5 -3
5 2 6 10 3 9 -3 16 -12 16 -19 0 -8 8 -11 20 -8 23 6 26 -6 8 -26 -11 -11 -10
-13 4 -8 10 3 19 0 22 -10 5 -12 17 -14 51 -10 25 2 48 1 51 -4 10 -18 62 -8
120 21 55 27 94 31 94 9 0 -5 5 -9 10 -9 6 0 10 30 10 69 l0 69 -2250 1 -2250
2 0 -1036z m4360 980 c0 -8 -9 -16 -20 -16 -11 -1 -25 -2 -32 -3 -19 -2 -20
22 -1 27 36 9 53 7 53 -8z m-1213 -521 c-3 -3 -12 -4 -19 -1 -8 3 -5 6 6 6 11
1 17 -2 13 -5z m-77 -14 c0 -5 -12 -10 -27 -10 -22 0 -25 2 -13 10 20 13 40
13 40 0z m-812 -225 c2 -65 -1 -112 -8 -119 -12 -12 -14 -56 -2 -56 10 0 8
-137 -1 -147 -4 -3 -7 27 -8 68 -1 89 -5 81 -14 -23 -6 -64 -10 -78 -26 -83
-10 -4 -19 -15 -19 -26 0 -10 -6 -19 -14 -19 -13 0 -26 -41 -26 -86 0 -15 -6
-24 -15 -24 -9 0 -15 -9 -15 -21 0 -19 -2 -20 -16 -8 -16 13 -35 19 -64 21 -8
0 -20 5 -26 9 -6 5 -39 11 -75 15 -35 3 -66 7 -69 9 -3 2 -30 4 -60 6 -30 1
-66 8 -80 15 -14 7 -40 11 -57 10 -18 -1 -30 1 -27 5 2 4 -5 9 -16 12 -11 3
-20 2 -20 -2 0 -3 -18 -5 -40 -3 -22 2 -40 8 -40 12 0 8 -30 19 -67 25 -18 3
-23 -1 -24 -18 -5 -75 -17 105 -16 233 1 94 2 119 4 63 l4 -92 27 5 c15 3 31
12 35 20 5 8 23 14 43 14 21 0 33 4 29 10 -4 6 -11 8 -16 5 -5 -4 -17 -1 -26
4 -11 6 -13 11 -5 11 7 0 11 4 8 8 -3 5 8 6 25 4 17 -2 29 0 27 5 -2 6 8 20
22 32 14 13 20 20 13 17 -14 -8 -43 3 -43 16 0 5 9 6 20 3 14 -4 20 -2 18 6
-2 7 8 18 21 25 23 12 23 12 2 23 -18 10 -19 15 -9 36 8 18 15 22 22 15 13
-13 46 -13 46 0 0 6 -5 10 -11 10 -5 0 -8 4 -4 9 3 6 15 8 26 6 15 -3 23 2 26
15 3 11 14 20 24 20 11 0 16 -5 14 -12 -4 -10 16 -13 75 -14 44 -1 80 2 80 6
0 5 -10 10 -22 12 -19 3 -17 5 8 9 25 4 31 2 26 -9 -4 -12 -1 -12 16 -3 11 6
31 11 44 11 13 0 75 3 138 8 63 5 120 8 125 7 6 -1 11 -48 13 -110z m-688 -35
c0 -5 -2 -10 -4 -10 -3 0 -8 5 -11 10 -3 6 -1 10 4 10 6 0 11 -4 11 -10z m-15
-80 c-3 -5 -12 -10 -20 -10 -8 0 -17 5 -20 10 -4 6 5 10 20 10 15 0 24 -4 20
-10z m-195 -131 c0 -66 -3 -88 -12 -83 -8 5 -9 2 -5 -9 3 -10 2 -17 -2 -17 -5
0 -11 7 -14 14 -4 11 -16 13 -41 9 -22 -3 -36 -2 -36 5 0 6 10 12 22 14 16 2
25 12 29 33 5 24 7 26 8 7 0 -13 6 -20 11 -17 6 3 10 -1 10 -9 0 -9 5 -16 11
-16 6 0 10 12 9 28 -4 48 0 132 5 132 3 0 5 -41 5 -91z m-73 -31 c-3 -8 -6 -5
-6 6 -1 11 2 17 5 13 3 -3 4 -12 1 -19z m33 -78 c0 -5 -4 -10 -9 -10 -6 0 -13
5 -16 10 -3 6 1 10 9 10 9 0 16 -4 16 -10z m30 -42 c0 -19 -2 -20 -10 -8 -13
19 -13 30 0 30 6 0 10 -10 10 -22z m62 -133 c1 -19 2 -42 2 -52 1 -9 -5 -18
-11 -20 -10 -4 -13 11 -13 51 0 60 19 79 22 21z m853 15 c-3 -5 -10 -10 -16
-10 -5 0 -9 5 -9 10 0 6 7 10 16 10 8 0 12 -4 9 -10z m-909 -45 c1 -19 -2 -35
-7 -35 -5 0 -9 19 -9 42 0 49 12 44 16 -7z m2161 -81 c-3 -3 -12 -4 -19 -1 -8
3 -5 6 6 6 11 1 17 -2 13 -5z m-3237 -20 c0 -2 -7 -4 -15 -4 -8 0 -15 4 -15
10 0 5 7 7 15 4 8 -4 15 -8 15 -10z m160 12 c0 -3 -4 -8 -10 -11 -5 -3 -10 -1
-10 4 0 6 5 11 10 11 6 0 10 -2 10 -4z m1694 -28 c-9 -14 -23 2 -17 18 4 12 8
13 14 3 4 -7 5 -17 3 -21z m142 -6 c-10 -10 -29 15 -21 28 6 9 10 8 17 -4 6
-10 7 -20 4 -24z m-1791 18 c3 -5 2 -10 -4 -10 -5 0 -13 5 -16 10 -3 6 -2 10
4 10 5 0 13 -4 16 -10z m150 0 c3 -5 1 -10 -4 -10 -6 0 -11 5 -11 10 0 6 2 10
4 10 3 0 8 -4 11 -10z m1585 -6 c0 -8 -5 -12 -10 -9 -6 4 -8 11 -5 16 9 14 15
11 15 -7z m151 1 c-1 -15 -24 -12 -29 3 -3 9 2 13 12 10 10 -1 17 -7 17 -13z
m-1331 -5 c0 -5 -4 -10 -10 -10 -5 0 -10 5 -10 10 0 6 5 10 10 10 6 0 10 -4
10 -10z m80 -12 c0 -10 -4 -18 -10 -18 -5 0 -10 2 -10 4 0 2 -2 11 -5 19 -4 8
0 14 10 14 8 0 15 -9 15 -19z m197 8 c-2 -5 -14 -16 -27 -25 -22 -15 -24 -15
-18 0 5 14 0 17 -25 18 -54 1 -67 4 -67 13 0 5 32 8 70 6 40 -1 69 -6 67 -12z
m171 -2 c6 -1 12 1 12 4 0 4 14 7 30 7 17 0 30 -2 30 -5 0 -5 64 -8 218 -10
45 -1 82 -5 82 -10 0 -16 -408 -10 -414 5 -6 17 4 26 18 18 6 -4 17 -8 24 -9z
m932 12 c0 -3 -4 -8 -10 -11 -5 -3 -10 -1 -10 4 0 6 5 11 10 11 6 0 10 -2 10
-4z m-470 -14 c0 -18 -22 -28 -50 -24 -40 6 -38 20 3 25 17 2 35 5 40 5 4 1 7
-2 7 -6z m-1724 -15 c4 -4 -2 -7 -14 -7 -12 0 -22 4 -22 9 0 10 26 9 36 -2z
m79 3 c3 -5 -1 -10 -10 -10 -9 0 -13 5 -10 10 3 6 8 10 10 10 2 0 7 -4 10 -10z
m195 -6 c0 -2 -12 -4 -27 -4 -21 0 -24 3 -14 9 13 8 41 5 41 -5z m1551 2 c-10
-11 -8 -15 6 -19 11 -3 8 -5 -10 -6 -17 -1 -26 3 -22 9 4 6 -8 10 -29 10 -20
0 -36 5 -36 10 0 6 23 10 51 10 43 0 50 -2 40 -14z m49 4 c0 -5 -4 -10 -10
-10 -5 0 -10 5 -10 10 0 6 5 10 10 10 6 0 10 -4 10 -10z m521 -16 c90 -3 214
-6 276 -7 61 -1 115 -5 119 -9 4 -5 16 -8 26 -8 23 0 24 -20 1 -20 -16 -1 -16
-2 1 -15 19 -14 19 -15 -7 -15 -18 0 -25 4 -21 14 3 7 -3 15 -13 18 -22 6 -43
0 -43 -13 0 -4 7 -6 15 -3 8 4 15 1 15 -4 0 -16 -12 -19 -50 -11 -32 6 -33 7
-12 14 27 9 30 29 2 22 -10 -3 -22 0 -25 7 -3 8 -7 7 -11 -2 -5 -10 -9 -10
-20 -1 -10 8 -14 8 -14 0 0 -6 -17 -11 -40 -11 -31 0 -38 -3 -34 -15 4 -8 2
-15 -3 -15 -13 0 -13 32 0 48 7 9 1 12 -24 11 -28 0 -31 -2 -14 -9 11 -5 14
-9 7 -9 -7 -1 -16 -11 -21 -23 -8 -22 -9 -21 -15 9 -6 27 -12 32 -37 31 -16
-1 -29 -4 -29 -9 0 -9 -20 -7 -37 4 -6 4 -23 3 -36 -2 -20 -8 -27 -6 -31 6 -7
17 -19 11 -22 -12 -1 -8 4 -15 12 -15 8 0 14 -4 14 -10 0 -5 -11 -10 -23 -10
-20 0 -23 5 -22 28 1 21 -3 28 -17 29 -16 2 -17 -1 -8 -13 10 -11 9 -14 -4
-14 -9 0 -16 4 -16 10 0 5 -7 7 -15 4 -10 -4 -15 0 -15 13 0 24 11 37 20 23 4
-6 73 -13 171 -16z m899 16 c0 -5 -5 -10 -11 -10 -5 0 -7 5 -4 10 3 6 8 10 11
10 2 0 4 -4 4 -10z m-3480 -15 c0 -8 -4 -15 -10 -15 -5 0 -10 7 -10 15 0 8 5
15 10 15 6 0 10 -7 10 -15z m363 -5 c6 -23 -8 -27 -17 -5 -3 8 -12 15 -21 15
-21 0 -19 -17 3 -23 9 -3 5 -4 -10 -4 -20 1 -28 7 -28 19 0 27 66 25 73 -2z
m33 5 c-4 -24 -13 -27 -19 -5 -3 13 0 20 8 20 7 0 12 -7 11 -15z m94 5 c0 -5
-2 -10 -4 -10 -3 0 -8 5 -11 10 -3 6 -1 10 4 10 6 0 11 -4 11 -10z m3560 6 c0
-3 -4 -8 -10 -11 -5 -3 -10 -1 -10 4 0 6 5 11 10 11 6 0 10 -2 10 -4z m-3967
-13 c-7 -2 -19 -2 -25 0 -7 3 -2 5 12 5 14 0 19 -2 13 -5z m38 -10 c13 -16 12
-17 -3 -4 -10 7 -18 15 -18 17 0 8 8 3 21 -13z m416 -5 c-3 -8 -6 -5 -6 6 -1
11 2 17 5 13 3 -3 4 -12 1 -19z m167 15 c3 -4 16 -8 27 -10 14 -2 18 1 13 9
-5 9 -2 9 9 -1 27 -21 20 -27 -33 -30 -31 -1 -50 2 -50 9 0 6 5 8 10 5 6 -3
10 -2 10 4 0 5 -6 12 -12 14 -9 4 -7 6 3 6 9 1 19 -2 23 -6z m3006 -3 c0 -5
-2 -10 -4 -10 -3 0 -8 5 -11 10 -3 6 -1 10 4 10 6 0 11 -4 11 -10z m-3190 -10
c0 -5 -2 -10 -4 -10 -3 0 -8 5 -11 10 -3 6 -1 10 4 10 6 0 11 -4 11 -10z m70
0 c0 -5 -4 -10 -10 -10 -5 0 -10 5 -10 10 0 6 5 10 10 10 6 0 10 -4 10 -10z
m270 0 c0 -5 -4 -10 -10 -10 -5 0 -10 5 -10 10 0 6 5 10 10 10 6 0 10 -4 10
-10z m108 4 c25 -7 30 -24 7 -24 -8 0 -15 5 -15 11 0 5 -4 8 -9 4 -5 -3 -12
-1 -16 5 -7 11 0 12 33 4z m127 -12 c19 2 31 0 29 -4 -7 -11 -124 -10 -124 1
0 15 23 19 44 9 10 -6 33 -8 51 -6z m2015 6 c0 -10 2 -10 9 0 7 11 9 11 14 -2
8 -21 -10 -31 -28 -16 -17 14 -20 30 -5 30 6 0 10 -6 10 -12z m71 -11 c-5 -5
-7 -17 -4 -26 4 -9 -3 -6 -16 8 -15 18 -18 27 -10 32 17 10 43 -1 30 -14z m55
8 c4 -8 12 -15 20 -15 8 0 11 6 8 15 -5 11 1 15 20 15 20 0 26 -5 26 -22 0
-16 -3 -19 -8 -10 -6 9 -12 5 -22 -13 -13 -25 -32 -35 -27 -14 1 6 -4 14 -12
17 -8 2 -11 0 -7 -6 3 -5 -1 -13 -9 -16 -13 -4 -13 -2 -5 14 15 28 12 40 -7
33 -11 -4 -14 -3 -9 5 10 17 26 15 32 -3z m110 -1 c-5 -12 0 -15 27 -13 21 2
31 -1 30 -9 -2 -7 4 -12 12 -12 8 0 15 -6 16 -12 0 -10 2 -10 6 0 2 6 11 12
19 12 8 0 14 9 14 20 0 17 3 19 19 11 10 -6 22 -7 26 -3 5 4 5 1 1 -6 -4 -7
-11 -10 -16 -7 -5 3 -8 -10 -6 -30 1 -20 -2 -39 -7 -42 -6 -3 -7 -1 -4 4 10
17 -22 26 -95 27 -36 0 -69 4 -73 8 -4 3 1 20 10 37 16 32 32 43 21 15z m992
7 c11 -7 11 -9 -1 -14 -16 -6 -27 0 -27 15 0 10 11 10 28 -1z m-3843 -11 c3
-5 2 -10 -4 -10 -5 0 -13 5 -16 10 -3 6 -2 10 4 10 5 0 13 -4 16 -10z m1312 4
c-3 -3 -12 -4 -19 -1 -8 3 -5 6 6 6 11 1 17 -2 13 -5z m1993 -9 c-7 -9 -15
-13 -17 -11 -7 7 7 26 19 26 6 0 6 -6 -2 -15z m264 -10 l-16 -25 31 6 c19 4
31 2 31 -4 0 -16 -20 -26 -20 -10 -1 9 -5 7 -14 -4 -7 -10 -26 -18 -41 -18
-27 0 -27 1 -11 19 16 18 16 18 -9 14 -15 -3 -22 -10 -18 -17 4 -6 0 -5 -9 2
-13 10 -22 11 -37 3 -27 -15 -71 -14 -71 2 0 7 -8 3 -16 -8 -12 -14 -18 -16
-21 -7 -4 10 -8 10 -19 1 -10 -8 -18 -8 -27 -1 -7 6 -36 12 -64 14 -54 3 -64
18 -12 18 18 0 28 4 24 10 -3 6 -1 10 4 10 6 0 11 -4 11 -8 0 -5 26 -10 58
-11 31 -1 66 -4 76 -8 15 -4 18 -2 12 12 -5 14 -3 16 11 9 26 -11 106 -6 115
9 6 9 8 8 8 -3 1 -12 3 -11 11 3 5 9 14 17 20 17 5 0 2 -11 -7 -25z m77 2
c-10 -9 -11 -8 -5 6 3 10 9 15 12 12 3 -3 0 -11 -7 -18z m284 13 c-3 -5 -12
-10 -18 -10 -7 0 -6 4 3 10 19 12 23 12 15 0z m-3039 -52 c5 -39 9 -47 15 -33
6 18 7 19 14 3 9 -21 -3 -57 -13 -42 -4 6 -15 13 -24 17 -14 5 -18 18 -18 57
0 66 17 64 26 -2z m1241 32 c-1 -15 -8 -20 -29 -20 -15 0 -28 5 -28 10 0 10
14 14 38 11 6 -1 12 3 12 9 0 5 2 10 4 10 3 0 4 -9 3 -20z m33 10 c0 -5 -4
-10 -10 -10 -5 0 -10 5 -10 10 0 6 5 10 10 10 6 0 10 -4 10 -10z m1315 0 c-3
-5 -13 -10 -21 -10 -8 0 -12 5 -9 10 3 6 13 10 21 10 8 0 12 -4 9 -10z m-1565
-10 c0 -5 -4 -10 -10 -10 -5 0 -10 5 -10 10 0 6 5 10 10 10 6 0 10 -4 10 -10z
m1040 6 c0 -3 -4 -8 -10 -11 -5 -3 -10 -1 -10 4 0 6 5 11 10 11 6 0 10 -2 10
-4z m810 0 c0 -2 -7 -7 -16 -10 -8 -3 -12 -2 -9 4 6 10 25 14 25 6z m-1700
-16 c0 -5 -2 -10 -4 -10 -3 0 -8 5 -11 10 -3 6 -1 10 4 10 6 0 11 -4 11 -10z
m540 -6 c0 -2 -14 -4 -31 -4 -16 0 -28 4 -25 9 5 8 56 3 56 -5z m192 -6 c-7
-7 -12 -8 -12 -2 0 6 3 14 7 17 3 4 9 5 12 2 2 -3 -1 -11 -7 -17z m-2132 2 c0
-5 -5 -10 -11 -10 -5 0 -7 5 -4 10 3 6 8 10 11 10 2 0 4 -4 4 -10z m133 -39
c4 -30 2 -40 -4 -30 -8 12 -10 12 -19 -1 -8 -11 -9 -4 -4 25 12 70 19 71 27 6z
m1497 34 c0 -8 -4 -15 -9 -15 -13 0 -22 16 -14 24 11 11 23 6 23 -9z m357 9
c-3 -3 -12 -4 -19 -1 -8 3 -5 6 6 6 11 1 17 -2 13 -5z m463 -4 c0 -4 -12 -7
-26 -7 -14 0 -21 3 -15 7 7 3 18 7 26 7 8 0 15 -4 15 -7z m-3100 -10 c0 -5 -5
-10 -11 -10 -5 0 -7 5 -4 10 3 6 8 10 11 10 2 0 4 -4 4 -10z m1090 6 c0 -3 -4
-8 -10 -11 -5 -3 -10 -1 -10 4 0 6 5 11 10 11 6 0 10 -2 10 -4z m270 -6 c0 -5
-4 -10 -10 -10 -5 0 -10 5 -10 10 0 6 5 10 10 10 6 0 10 -4 10 -10z m515 0 c3
-5 1 -10 -4 -10 -6 0 -11 5 -11 10 0 6 2 10 4 10 3 0 8 -4 11 -10z m435 0 c0
-5 -2 -10 -4 -10 -3 0 -8 5 -11 10 -3 6 -1 10 4 10 6 0 11 -4 11 -10z m1337 4
c-3 -3 -12 -4 -19 -1 -8 3 -5 6 6 6 11 1 17 -2 13 -5z m126 -1 c-7 -2 -21 -2
-30 0 -10 3 -4 5 12 5 17 0 24 -2 18 -5z m-3793 -22 c19 -1 37 -5 40 -7 8 -8
-23 -23 -34 -16 -6 3 -23 7 -40 9 -37 4 -45 11 -26 23 8 5 17 6 20 2 3 -4 21
-9 40 -11z m1520 3 c0 -8 -4 -12 -10 -9 -5 3 -10 10 -10 16 0 5 5 9 10 9 6 0
10 -7 10 -16z m-1422 -9 c-2 -6 -6 -9 -10 -7 -5 1 -8 -5 -8 -13 0 -8 -4 -15
-10 -15 -5 0 -10 2 -10 4 0 2 -3 11 -6 19 -3 10 1 17 13 20 24 6 35 3 31 -8z
m2947 5 c3 -5 1 -10 -4 -10 -6 0 -11 5 -11 10 0 6 2 10 4 10 3 0 8 -4 11 -10z
m62 4 c-3 -3 -12 -4 -19 -1 -8 3 -5 6 6 6 11 1 17 -2 13 -5z m388 -14 c-2 -4
-17 -7 -32 -7 -24 0 -25 1 -9 13 18 13 50 9 41 -6z m-3215 0 c12 -8 11 -10 -7
-10 -13 0 -23 5 -23 10 0 13 11 13 30 0z m244 -2 c-3 -4 -11 -5 -19 -1 -21 7
-19 12 4 10 11 0 18 -5 15 -9z m336 -18 c0 -10 -4 -22 -10 -25 -6 -4 -10 7
-10 25 0 18 4 29 10 25 6 -3 10 -15 10 -25z m-1010 10 c0 -5 -4 -10 -10 -10
-5 0 -10 5 -10 10 0 6 5 10 10 10 6 0 10 -4 10 -10z m1460 0 c0 -5 -4 -10 -10
-10 -5 0 -10 5 -10 10 0 6 5 10 10 10 6 0 10 -4 10 -10z m1770 0 c0 -5 -8 -10
-17 -10 -15 0 -16 2 -3 10 19 12 20 12 20 0z m76 -3 c4 -4 -5 -7 -19 -7 -15 0
-27 4 -27 10 0 11 35 8 46 -3z m-3597 -14 c-1 -10 0 -20 1 -23 1 -3 3 -23 5
-45 4 -62 15 -105 28 -106 26 -1 49 -8 55 -15 4 -4 -1 -4 -10 -1 -12 4 -18 1
-18 -9 0 -10 -6 -14 -15 -10 -20 7 -19 -8 1 -29 14 -13 19 -14 26 -3 7 9 8 8
4 -5 -3 -10 -6 -25 -6 -33 0 -10 -14 -14 -51 -14 -31 0 -48 -4 -44 -10 11 -17
-3 -11 -28 13 -25 23 -26 47 -1 47 8 0 14 6 15 13 0 6 5 1 10 -12 14 -35 20
-21 21 49 1 43 -3 65 -13 71 -11 7 -9 9 6 9 18 1 18 2 4 13 -11 8 -16 24 -14
47 2 19 3 43 4 53 1 9 6 17 12 17 5 0 9 -8 8 -17z m605 2 c-4 -9 -19 -15 -40
-15 -58 0 -38 26 23 29 16 1 21 -3 17 -14z m1903 -7 c-3 -8 -6 -5 -6 6 -1 11
2 17 5 13 3 -3 4 -12 1 -19z m63 12 c0 -5 -2 -10 -4 -10 -3 0 -8 5 -11 10 -3
6 -1 10 4 10 6 0 11 -4 11 -10z m-1895 -10 c3 -5 1 -10 -4 -10 -6 0 -11 5 -11
10 0 6 2 10 4 10 3 0 8 -4 11 -10z m1786 -21 c-9 -22 -10 -22 -10 -3 -1 11 2
24 6 27 12 12 14 0 4 -24z m249 21 c0 -5 -4 -10 -10 -10 -5 0 -10 5 -10 10 0
6 5 10 10 10 6 0 10 -4 10 -10z m330 0 c0 -5 -4 -10 -10 -10 -5 0 -10 5 -10
10 0 6 5 10 10 10 6 0 10 -4 10 -10z m-654 -24 c12 -13 10 -14 -13 -12 -15 2
-29 8 -31 15 -5 16 27 14 44 -3z m169 4 c3 -5 -1 -10 -10 -10 -9 0 -13 5 -10
10 3 6 8 10 10 10 2 0 7 -4 10 -10z m-1708 -6 c-3 -3 -12 -4 -19 -1 -8 3 -5 6
6 6 11 1 17 -2 13 -5z m653 -3 c0 -5 -7 -11 -14 -14 -10 -4 -13 -1 -9 9 6 15
23 19 23 5z m1120 5 c0 -11 -19 -15 -25 -6 -3 5 1 10 9 10 9 0 16 -2 16 -4z
m-1010 -22 c0 -2 -9 -4 -21 -4 -11 0 -18 4 -14 10 5 8 35 3 35 -6z m70 6 c0
-5 -5 -10 -11 -10 -5 0 -7 5 -4 10 3 6 8 10 11 10 2 0 4 -4 4 -10z m2508 -11
c-2 -6 -8 -10 -13 -10 -5 0 -11 4 -13 10 -2 6 4 11 13 11 9 0 15 -5 13 -11z
m-2638 -9 c0 -5 -5 -10 -11 -10 -5 0 -7 5 -4 10 3 6 8 10 11 10 2 0 4 -4 4
-10z m1830 -5 c0 -8 -7 -15 -15 -15 -16 0 -20 12 -8 23 11 12 23 8 23 -8z m70
0 c0 -8 -7 -15 -15 -15 -26 0 -18 20 13 29 1 1 2 -6 2 -14z m685 5 c3 -5 1
-10 -4 -10 -6 0 -11 5 -11 10 0 6 2 10 4 10 3 0 8 -4 11 -10z m-1990 -10 c3
-5 1 -10 -4 -10 -6 0 -11 5 -11 10 0 6 2 10 4 10 3 0 8 -4 11 -10z m851 -23
c2 -12 0 -16 -2 -9 -3 6 -9 10 -14 7 -4 -3 -6 4 -3 15 7 25 16 18 19 -13z
m495 10 c-13 -13 -26 -3 -16 12 3 6 11 8 17 5 6 -4 6 -10 -1 -17z m-421 -9 c0
-13 -23 -5 -28 10 -2 7 2 10 12 6 9 -3 16 -11 16 -16z m-115 -8 c-3 -5 -16
-10 -28 -9 -21 0 -21 1 -2 9 28 12 37 12 30 0z m-2185 -10 c0 -3 -20 -6 -45
-7 -25 -1 -45 2 -45 7 0 5 20 9 45 8 25 -1 45 -5 45 -8z m2040 0 c0 -5 -9 -10
-21 -10 -11 0 -17 5 -14 10 3 6 13 10 21 10 8 0 14 -4 14 -10z m370 0 c0 -10
-26 -20 -34 -13 -11 12 -6 19 14 20 11 1 20 -2 20 -7z m497 4 c-3 -3 -12 -4
-19 -1 -8 3 -5 6 6 6 11 1 17 -2 13 -5z m-3367 -24 c-8 -5 -17 -7 -19 -4 -3 3
1 9 9 14 8 5 17 7 19 4 3 -3 -1 -9 -9 -14z m1044 -2 c11 -41 6 -78 -9 -85 -24
-8 -27 0 -19 56 7 54 18 65 28 29z m-148 -54 c-10 -39 -23 -14 -18 33 4 34 6
36 15 16 5 -12 6 -34 3 -49z m1162 45 c-10 -7 -10 -9 2 -10 8 0 26 -2 40 -4
63 -8 107 -8 118 -1 8 5 12 -2 11 -26 0 -18 -3 -27 -6 -20 -2 6 -11 12 -19 12
-8 0 -14 5 -14 10 0 6 -7 10 -15 10 -8 0 -15 -6 -15 -13 0 -8 -7 -14 -15 -14
-8 0 -15 5 -15 10 0 6 -18 7 -45 4 l-45 -7 0 35 c0 27 3 33 16 28 13 -5 13 -7
2 -14z m552 11 c0 -5 -11 -10 -24 -10 -13 0 -32 -3 -40 -6 -12 -5 -15 -2 -10
10 7 18 74 23 74 6z m156 -4 c8 -21 32 -27 54 -14 15 10 27 10 50 1 24 -9 30
-9 30 2 0 8 4 16 9 19 5 3 8 -2 7 -11 -1 -21 50 -26 69 -6 28 28 27 12 -1 -19
-16 -17 -22 -27 -14 -22 21 12 40 14 40 3 0 -5 7 -9 16 -9 8 0 13 -4 10 -9 -3
-4 6 -6 19 -3 14 2 25 0 25 -7 0 -6 -12 -13 -27 -16 -16 -3 -42 -10 -59 -14
-38 -10 -90 11 -58 23 16 6 16 8 4 16 -10 7 -11 10 -2 10 6 0 12 4 12 9 0 4
-10 8 -22 8 -13 0 -36 5 -52 12 -35 14 -52 9 -88 -24 -26 -24 -55 -35 -44 -17
3 5 -10 4 -29 -2 -19 -6 -40 -21 -46 -33 -7 -13 -16 -23 -21 -23 -14 0 -9 80
8 105 18 28 34 33 34 11 0 -8 4 -18 10 -21 5 -3 8 0 5 7 -3 7 5 18 17 24 32
16 38 16 44 0z m1214 4 c0 -5 -2 -10 -4 -10 -3 0 -8 5 -11 10 -3 6 -1 10 4 10
6 0 11 -4 11 -10z m-1817 -7 c-7 -2 -21 -2 -30 0 -10 3 -4 5 12 5 17 0 24 -2
18 -5z m1207 -3 c0 -5 -5 -10 -11 -10 -5 0 -7 5 -4 10 3 6 8 10 11 10 2 0 4
-4 4 -10z m-970 -12 c0 -4 -6 -8 -14 -8 -8 0 -17 4 -20 8 -2 4 4 8 15 8 10 0
19 -4 19 -8z m61 -27 c20 13 29 11 29 -6 0 -10 -8 -13 -32 -9 -18 3 -40 6 -49
7 -13 1 -14 5 -5 20 11 17 12 17 27 -2 11 -13 20 -16 30 -10z m-2796 9 c3 -5
-1 -10 -10 -10 -9 0 -13 5 -10 10 3 6 8 10 10 10 2 0 7 -4 10 -10z m1905 -6
c0 -8 -5 -12 -10 -9 -6 4 -8 11 -5 16 9 14 15 11 15 -7z m1960 -1 c0 -15 2
-16 10 -3 5 8 10 11 10 5 0 -30 -57 -45 -73 -18 -11 18 -57 17 -57 -2 0 -8 -7
-15 -15 -15 -8 0 -15 -4 -15 -10 0 -5 7 -10 15 -10 10 0 14 -8 12 -22 -4 -24
-22 -35 -32 -19 -3 6 0 12 7 12 7 1 -7 5 -32 9 -30 5 -48 3 -52 -4 -6 -8 -8
-8 -8 1 0 22 -71 28 -103 9 -25 -14 -28 -14 -23 -1 3 10 -1 15 -13 15 -10 0
-18 -6 -17 -14 0 -8 -3 -15 -9 -15 -5 0 -9 7 -9 14 1 8 -1 13 -5 11 -4 -3 -13
-1 -21 5 -12 7 -12 9 3 9 10 0 16 3 14 8 -5 7 5 8 73 13 18 2 27 7 23 13 -4 6
1 5 10 -3 9 -7 14 -17 11 -22 -3 -5 2 -6 10 -3 9 3 13 10 10 15 -3 5 0 9 5 9
6 0 11 -4 11 -10 0 -6 10 -6 28 1 15 6 28 10 30 10 16 -5 24 1 12 9 -12 8 -11
10 8 10 12 0 21 -5 20 -12 -2 -6 6 -13 17 -15 16 -3 17 -2 6 6 -12 8 -10 11
12 16 15 4 41 5 57 3 17 -3 30 -1 30 4 0 4 9 8 20 8 12 0 20 -7 20 -17z
m-1860 3 c0 -2 -7 -6 -15 -10 -8 -3 -15 -1 -15 4 0 6 7 10 15 10 8 0 15 -2 15
-4z m-813 -43 c-3 -10 -5 -4 -5 12 0 17 2 24 5 18 2 -7 2 -21 0 -30z m128 16
c5 -14 1 -27 -9 -37 -15 -15 -16 -13 -16 21 0 40 15 50 25 16z m119 3 c-1 -7
-2 -21 -2 -33 -3 -31 -22 -12 -22 22 0 20 4 29 13 27 6 -3 12 -10 11 -16z
m2761 11 c-16 -2 -36 -12 -42 -21 -14 -17 -17 -13 -7 12 4 11 18 16 43 15 33
-2 34 -2 6 -6z m-2948 -25 c-3 -8 -6 -5 -6 6 -1 11 2 17 5 13 3 -3 4 -12 1
-19z m623 6 c0 -2 -15 -4 -32 -3 -27 0 -29 2 -13 8 18 8 45 4 45 -5z m-1225
-4 c3 -5 1 -10 -4 -10 -6 0 -11 5 -11 10 0 6 2 10 4 10 3 0 8 -4 11 -10z
m3635 -4 c0 -3 -4 -8 -10 -11 -5 -3 -10 -1 -10 4 0 6 5 11 10 11 6 0 10 -2 10
-4z m-1168 -30 c3 -16 0 -27 -10 -31 -8 -3 -16 -4 -16 -3 -1 2 -10 15 -19 31
l-17 27 29 0 c23 0 30 -5 33 -24z m-1126 5 c-5 -8 -56 -3 -56 5 0 2 14 4 31 4
16 0 28 -4 25 -9z m196 -13 c-7 -7 -12 -8 -12 -2 0 14 12 26 19 19 2 -3 -1
-11 -7 -17z m1685 2 c-2 -8 -9 -14 -17 -12 -7 2 -17 -3 -21 -10 -11 -18 -32 4
-23 25 8 21 66 19 61 -3z m453 10 c0 -5 -4 -10 -10 -10 -5 0 -10 5 -10 10 0 6
5 10 10 10 6 0 10 -4 10 -10z m-4100 -10 c0 -5 -9 -10 -20 -10 -11 0 -20 5
-20 10 0 6 9 10 20 10 11 0 20 -4 20 -10z m1640 -5 c12 -15 6 -35 -12 -35 -6
0 -5 7 3 17 12 15 12 16 -8 11 -16 -4 -20 -2 -16 8 7 18 17 18 33 -1z m1700
-1 c0 -8 -5 -12 -10 -9 -6 4 -8 11 -5 16 9 14 15 11 15 -7z m-792 -6 c9 -9 12
-9 12 1 0 7 5 9 11 6 13 -9 89 -12 89 -4 0 3 12 5 27 4 37 -1 59 -57 27 -69
-8 -3 -12 -2 -9 4 3 5 -18 9 -52 8 -32 -1 -81 2 -110 6 -50 7 -51 8 -41 32 12
26 28 30 46 12z m-1978 -19 c0 -5 -4 -9 -10 -9 -5 0 -10 7 -10 16 0 8 5 12 10
9 6 -3 10 -10 10 -16z m760 11 c0 -5 -7 -10 -15 -10 -8 0 -15 5 -15 10 0 6 7
10 15 10 8 0 15 -4 15 -10z m2632 -5 c-2 -5 -8 -9 -13 -7 -5 1 -23 -5 -39 -13
-16 -8 -35 -15 -41 -15 -20 0 24 29 44 30 10 0 15 5 11 11 -4 7 2 9 17 7 13
-1 22 -7 21 -13z m98 0 c-3 -5 -15 -10 -27 -10 -12 -1 -25 -4 -29 -8 -4 -4
-12 -7 -18 -7 -6 0 0 9 14 20 25 20 69 24 60 5z m-3285 -15 c-3 -5 -13 -10
-21 -10 -8 0 -14 5 -14 10 0 6 9 10 21 10 11 0 17 -4 14 -10z m2315 -20 c0
-11 -4 -20 -9 -20 -6 0 -9 9 -8 20 1 11 5 20 9 20 4 0 8 -9 8 -20z m550 16 c0
-3 -4 -8 -10 -11 -5 -3 -10 -1 -10 4 0 6 5 11 10 11 6 0 10 -2 10 -4z m-3811
-42 c1 23 14 13 18 -14 2 -14 -3 -20 -15 -20 -25 0 -31 7 -24 33 5 20 6 20 13
1 7 -18 8 -18 8 0z m416 6 c3 -5 1 -10 -4 -10 -6 0 -11 5 -11 10 0 6 2 10 4
10 3 0 8 -4 11 -10z m941 -67 c6 -43 -3 -57 -30 -47 -15 6 -15 19 0 94 5 20 7
22 14 9 5 -9 12 -34 16 -56z m-591 47 c3 -5 1 -10 -4 -10 -6 0 -11 5 -11 10 0
6 2 10 4 10 3 0 8 -4 11 -10z m3065 0 c0 -5 -2 -10 -4 -10 -3 0 -8 5 -11 10
-3 6 -1 10 4 10 6 0 11 -4 11 -10z m-3750 -10 c0 -5 -7 -10 -16 -10 -8 0 -12
5 -9 10 3 6 10 10 16 10 5 0 9 -4 9 -10z m1040 -36 c0 -32 -4 -44 -12 -42 -12
4 -13 12 -10 66 3 42 22 22 22 -24z m-40 -9 c0 -19 -4 -35 -10 -35 -11 0 -14
53 -3 63 11 12 13 8 13 -28z m344 19 c10 -25 7 -72 -5 -80 -6 -3 -17 0 -25 7
-11 12 -11 22 -2 52 12 40 22 46 32 21z m344 -17 c3 -24 0 -27 -25 -27 -27 0
-72 20 -45 20 6 0 12 6 12 14 0 8 6 17 13 19 25 11 42 1 45 -26z m522 29 c0
-11 -19 -15 -25 -6 -3 5 1 10 9 10 9 0 16 -2 16 -4z m863 -3 c-7 -2 -21 -2
-30 0 -10 3 -4 5 12 5 17 0 24 -2 18 -5z m97 3 c0 -9 -30 -14 -35 -6 -4 6 3
10 14 10 12 0 21 -2 21 -4z m963 -5 c10 -4 44 -4 75 0 55 6 82 2 53 -9 -10 -3
-11 -6 -1 -12 19 -12 4 -41 -16 -33 -9 3 -20 0 -25 -8 -6 -9 -9 -10 -9 -2 0 9
-21 12 -70 10 -39 -1 -70 1 -70 6 0 4 -7 7 -15 7 -8 0 -15 5 -15 11 0 7 18 8
50 5 30 -4 50 -2 50 4 0 6 -20 10 -44 10 -25 0 -48 5 -51 10 -7 12 60 13 88 1z
m-3061 -58 c-8 -23 -25 -14 -18 10 3 12 6 29 7 37 0 8 4 4 8 -10 4 -14 6 -31
3 -37z m128 26 c10 -22 10 -36 3 -48 -18 -28 -28 -18 -31 32 -4 54 10 61 28
16z m757 25 c-3 -3 -12 -4 -19 -1 -8 3 -5 6 6 6 11 1 17 -2 13 -5z m30 -36
c-3 -8 -6 -5 -6 6 -1 11 2 17 5 13 3 -3 4 -12 1 -19z m1073 12 c12 -8 11 -10
-7 -10 -13 0 -23 5 -23 10 0 13 11 13 30 0z m95 0 c3 -5 2 -10 -4 -10 -5 0
-16 -3 -25 -6 -11 -4 -16 -1 -16 10 0 18 35 22 45 6z m-1015 -20 c0 -5 -4 -10
-10 -10 -5 0 -10 5 -10 10 0 6 5 10 10 10 6 0 10 -4 10 -10z m-1173 -32 c-3
-7 -5 -2 -5 12 0 14 2 19 5 13 2 -7 2 -19 0 -25z m-857 -5 c0 -8 -4 -11 -10
-8 -5 3 -10 2 -10 -2 0 -5 -9 -9 -20 -10 -23 -2 -26 11 -8 31 15 16 48 9 48
-11z m1279 -5 c-2 -18 3 -43 9 -55 7 -13 9 -23 3 -23 -5 0 -13 9 -16 20 -3 11
-11 20 -16 20 -10 0 -12 30 -3 54 11 28 26 17 23 -16z m-1509 2 c0 -5 -9 -10
-21 -10 -11 0 -17 5 -14 10 3 6 13 10 21 10 8 0 14 -4 14 -10z m595 0 c3 -5 1
-10 -4 -10 -6 0 -11 5 -11 10 0 6 2 10 4 10 3 0 8 -4 11 -10z m677 -27 c1 -12
0 -22 -4 -23 -24 -1 -28 2 -28 23 0 45 25 44 32 0z m-1232 17 c0 -5 -7 -10
-15 -10 -8 0 -15 5 -15 10 0 6 7 10 15 10 8 0 15 -4 15 -10z m40 0 c0 -5 -7
-10 -15 -10 -8 0 -15 5 -15 10 0 6 7 10 15 10 8 0 15 -4 15 -10z m1127 -12
c-3 -8 -6 -5 -6 6 -1 11 2 17 5 13 3 -3 4 -12 1 -19z m3170 16 c-3 -3 -12 -4
-19 -1 -8 3 -5 6 6 6 11 1 17 -2 13 -5z m-3707 -13 c0 -5 -9 -7 -20 -4 -11 3
-20 7 -20 9 0 2 9 4 20 4 11 0 20 -4 20 -9z m2410 -16 c0 -14 -4 -25 -10 -25
-5 0 -10 11 -10 25 0 14 5 25 10 25 6 0 10 -11 10 -25z m350 21 c0 -3 -4 -8
-10 -11 -5 -3 -10 -1 -10 4 0 6 5 11 10 11 6 0 10 -2 10 -4z m50 -6 c0 -5 -7
-10 -15 -10 -8 0 -15 5 -15 10 0 6 7 10 15 10 8 0 15 -4 15 -10z m114 -5 c3
-8 1 -15 -3 -15 -5 0 -11 7 -15 15 -3 8 -1 15 3 15 5 0 11 -7 15 -15z m-64 -5
c0 -5 -4 -10 -10 -10 -5 0 -10 5 -10 10 0 6 5 10 10 10 6 0 10 -4 10 -10z
m-780 -20 c0 -5 -7 -7 -15 -4 -8 4 -15 8 -15 10 0 2 7 4 15 4 8 0 15 -4 15
-10z m1320 0 c0 -5 -5 -10 -11 -10 -5 0 -7 5 -4 10 3 6 8 10 11 10 2 0 4 -4 4
-10z m-3755 -29 c-3 -6 -11 -8 -17 -5 -6 4 -5 9 3 15 16 10 23 4 14 -10z m320
9 c3 -5 1 -10 -4 -10 -6 0 -11 5 -11 10 0 6 2 10 4 10 3 0 8 -4 11 -10z m471
-97 c-3 -8 -10 -11 -16 -8 -10 6 -5 75 8 105 8 18 15 -77 8 -97z m821 101 c-3
-3 -12 -4 -19 -1 -8 3 -5 6 6 6 11 1 17 -2 13 -5z m-1020 -19 c-11 -7 -25 -11
-33 -8 -25 10 -15 23 19 23 30 -1 31 -2 14 -15z m519 -41 c7 -27 13 -52 14
-56 0 -7 -59 -22 -66 -16 -8 9 19 129 29 125 5 -1 16 -25 23 -53z m2131 27
c16 -22 -7 -34 -40 -22 -18 7 -24 15 -20 29 6 23 41 19 60 -7z m62 -13 c2 -18
-37 -6 -42 13 -4 15 -2 19 9 15 8 -3 14 0 15 7 0 11 17 -20 18 -35z m-2629 22
c0 -5 -2 -10 -4 -10 -3 0 -8 5 -11 10 -3 6 -1 10 4 10 6 0 11 -4 11 -10z
m1207 4 c-3 -3 -12 -4 -19 -1 -8 3 -5 6 6 6 11 1 17 -2 13 -5z m1184 -27 c-8
-8 -11 -7 -11 4 0 20 13 34 18 19 3 -7 -1 -17 -7 -23z m-2317 -26 c-1 -40 -9
-60 -19 -49 -7 7 6 98 14 94 4 -3 6 -23 5 -45z m446 -21 c0 -63 -4 -68 -33
-45 -17 12 -18 18 -7 52 25 76 40 73 40 -7z m1450 50 c0 -5 -5 -10 -11 -10 -5
0 -7 5 -4 10 3 6 8 10 11 10 2 0 4 -4 4 -10z m-1810 -48 c-5 -18 -6 -41 -3
-50 6 -16 6 -16 -11 0 -15 15 -15 23 -5 58 7 22 16 37 21 32 4 -4 4 -23 -2
-40z m180 8 c11 -21 20 -46 20 -55 0 -18 -26 -20 -33 -2 -3 6 -6 2 -6 -10 -1
-27 -21 -31 -21 -4 0 27 12 111 16 111 2 0 13 -18 24 -40z m-930 21 c0 -10
-26 -9 -36 2 -4 4 2 7 14 7 12 0 22 -4 22 -9z m565 -31 c-3 -5 -10 -10 -16
-10 -5 0 -9 5 -9 10 0 6 7 10 16 10 8 0 12 -4 9 -10z m68 -27 c3 -16 1 -35 -4
-43 -6 -11 -8 -8 -9 12 0 14 -3 33 -6 42 -3 9 -2 16 4 16 5 0 12 -12 15 -27z
m-653 -13 c0 -22 15 -27 26 -9 4 8 9 7 15 -2 5 -9 24 -12 54 -10 43 2 46 1 40
-18 -5 -18 -2 -21 20 -21 14 0 24 -4 21 -9 -3 -5 -17 -8 -30 -8 -18 0 -26 6
-31 25 -4 18 -9 22 -14 13 -23 -36 -121 -8 -121 35 0 13 5 24 10 24 6 0 10 -9
10 -20z m1189 -46 c-2 -52 -3 -53 -21 -37 -21 19 -23 42 -7 77 18 38 30 20 28
-40z m744 59 c-7 -2 -19 -2 -25 0 -7 3 -2 5 12 5 14 0 19 -2 13 -5z m1692 -3
c-3 -5 -10 -10 -16 -10 -5 0 -9 5 -9 10 0 6 7 10 16 10 8 0 12 -4 9 -10z
m-1775 -15 c0 -8 -2 -15 -4 -15 -2 0 -6 7 -10 15 -3 8 -1 15 4 15 6 0 10 -7
10 -15z m-490 -5 c0 -5 -5 -10 -11 -10 -5 0 -7 5 -4 10 3 6 8 10 11 10 2 0 4
-4 4 -10z m1297 -12 c-3 -8 -6 -5 -6 6 -1 11 2 17 5 13 3 -3 4 -12 1 -19z
m-1858 -35 c0 -42 -1 -45 -10 -23 -9 23 -5 70 6 70 3 0 5 -21 4 -47z m84 -24
c-21 -35 -33 -28 -33 20 0 48 10 58 32 31 17 -21 17 -24 1 -51z m-887 27 c25
-13 41 -26 37 -29 -11 -7 -93 33 -93 45 0 12 7 10 56 -16z m2964 -6 c0 -11 -2
-20 -4 -20 -2 0 -11 -3 -20 -6 -11 -4 -16 0 -16 13 0 23 8 33 27 33 7 0 13 -9
13 -20z m-2740 -6 c0 -8 -4 -12 -10 -9 -5 3 -10 10 -10 16 0 5 5 9 10 9 6 0
10 -7 10 -16z m3480 6 c0 -5 -4 -10 -10 -10 -5 0 -10 5 -10 10 0 6 5 10 10 10
6 0 10 -4 10 -10z m-3601 -21 c-16 -10 -23 -4 -14 10 3 6 11 8 17 5 6 -4 5 -9
-3 -15z m597 -33 c2 -26 5 -51 7 -55 4 -15 -17 -13 -27 2 -9 14 1 113 10 104
3 -3 7 -26 10 -51z m2944 44 c0 -5 -4 -10 -10 -10 -5 0 -10 5 -10 10 0 6 5 10
10 10 6 0 10 -4 10 -10z m-800 -10 c0 -5 -4 -10 -10 -10 -5 0 -10 5 -10 10 0
6 5 10 10 10 6 0 10 -4 10 -10z m-1776 -51 c15 -51 13 -75 -5 -64 -5 4 -9 15
-9 26 0 30 -18 22 -25 -12 -4 -17 -11 -27 -15 -22 -10 9 19 123 31 123 5 0 15
-23 23 -51z m-926 16 c-3 -3 -9 2 -12 12 -6 14 -5 15 5 6 7 -7 10 -15 7 -18z
m511 -29 c1 -27 -2 -46 -9 -46 -5 0 -10 22 -10 51 0 62 15 58 19 -5z m513 -1
c4 -75 3 -80 -12 -80 -10 0 -14 8 -12 25 4 24 3 25 -12 5 -20 -26 -20 -11 0
42 20 52 33 55 36 8z m115 29 c-3 -3 -12 -4 -19 -1 -8 3 -5 6 6 6 11 1 17 -2
13 -5z m483 -14 c0 -5 -6 -10 -14 -10 -7 0 -28 -3 -45 -6 -19 -4 -31 -2 -31 4
0 11 25 18 68 21 12 0 22 -3 22 -9z m190 5 c0 -3 -10 -21 -22 -41 -20 -30 -27
-34 -53 -31 -42 6 -147 -10 -155 -23 -10 -15 -152 -9 -157 7 -3 9 11 13 49 13
29 0 91 6 138 14 47 8 99 12 116 10 28 -5 34 -2 50 25 16 27 34 41 34 26z
m1620 -5 c0 -5 -2 -10 -4 -10 -3 0 -8 5 -11 10 -3 6 -1 10 4 10 6 0 11 -4 11
-10z m-2820 -57 c-1 -53 -2 -56 -15 -39 -16 21 -18 38 -9 74 11 41 24 22 24
-35z m203 22 c9 -20 17 -42 17 -49 0 -14 -47 -43 -55 -34 -8 7 6 118 15 118 3
0 14 -16 23 -35z m701 26 c3 -5 -6 -11 -19 -14 -27 -5 -44 8 -23 16 21 8 36 8
42 -2z m2170 -10 c3 -5 -8 -11 -25 -13 -35 -5 -50 8 -17 15 13 2 26 5 30 6 4
0 9 -3 12 -8z m-3884 -17 c0 -8 -5 -12 -10 -9 -6 4 -8 11 -5 16 9 14 15 11 15
-7z m50 -15 c0 -10 -7 -19 -15 -19 -16 0 -19 9 -9 34 8 20 24 11 24 -15z m338
16 c-4 -11 -28 -16 -28 -6 0 12 13 22 23 18 5 -1 7 -7 5 -12z m-38 -5 c0 -5
-2 -10 -4 -10 -3 0 -8 5 -11 10 -3 6 -1 10 4 10 6 0 11 -4 11 -10z m323 -22
c3 -12 2 -28 -2 -36 -6 -11 -10 -4 -13 22 -4 39 6 49 15 14z m753 7 c11 -10
36 -15 85 -15 44 0 69 -4 69 -11 0 -16 -182 -7 -188 9 -2 8 -18 9 -48 5 -28
-4 -44 -2 -44 5 0 15 18 20 68 21 26 1 49 -5 58 -14z m54 5 c0 -5 -9 -10 -20
-10 -11 0 -20 5 -20 10 0 6 9 10 20 10 11 0 20 -4 20 -10z m70 0 c0 -5 -9 -10
-20 -10 -11 0 -20 5 -20 10 0 6 9 10 20 10 11 0 20 -4 20 -10z m2210 6 c0 -3
-4 -8 -10 -11 -5 -3 -10 -1 -10 4 0 6 5 11 10 11 6 0 10 -2 10 -4z m-3683 -38
c-3 -7 -5 -2 -5 12 0 14 2 19 5 13 2 -7 2 -19 0 -25z m-107 0 c0 -16 -3 -19
-11 -11 -6 6 -8 16 -5 22 11 17 16 13 16 -11z m1320 -30 c0 -60 -12 -76 -33
-44 -21 31 -21 31 -1 61 24 36 34 31 34 -17z m2543 25 c-7 -2 -19 -2 -25 0 -7
3 -2 5 12 5 14 0 19 -2 13 -5z m-1413 -17 c0 -3 -4 -8 -10 -11 -5 -3 -10 -1
-10 4 0 6 5 11 10 11 6 0 10 -2 10 -4z m-1584 -43 c-11 -11 -19 6 -11 24 8 17
8 17 12 0 3 -10 2 -21 -1 -24z m100 20 c18 -24 17 -34 -1 -27 -11 5 -15 -1
-15 -26 0 -17 -4 -29 -9 -25 -5 3 -8 18 -6 33 2 15 4 35 4 45 1 9 4 17 7 17 4
0 13 -8 20 -17z m-986 -13 c0 -11 -7 -20 -15 -20 -17 0 -18 2 -9 24 9 23 24
20 24 -4z m3675 10 c-3 -5 -10 -10 -16 -10 -5 0 -9 5 -9 10 0 6 7 10 16 10 8
0 12 -4 9 -10z m294 6 c-3 -3 -35 -11 -72 -19 -37 -7 -64 -10 -60 -6 14 13
145 37 132 25z m-3207 -56 c2 -28 0 -40 -9 -40 -9 0 -13 15 -13 46 0 55 16 50
22 -6z m38 -30 c-5 -33 -9 -40 -14 -27 -10 21 2 93 14 81 4 -5 4 -29 0 -54z
m1670 56 c0 -3 -4 -8 -10 -11 -5 -3 -10 -1 -10 4 0 6 5 11 10 11 6 0 10 -2 10
-4z m220 -6 c0 -5 -2 -10 -4 -10 -3 0 -8 5 -11 10 -3 6 -1 10 4 10 6 0 11 -4
11 -10z m1030 6 c0 -3 -4 -8 -10 -11 -5 -3 -10 -1 -10 4 0 6 5 11 10 11 6 0
10 -2 10 -4z m-2997 -43 c3 -15 3 -33 0 -40 -9 -24 -23 -2 -23 38 0 44 15 45
23 2z m505 -10 c-3 -44 -5 -48 -30 -51 -33 -4 -33 -6 -8 52 27 60 42 59 38 -1z
m-95 2 c24 -50 22 -65 -8 -65 -23 0 -25 3 -25 50 0 28 4 50 8 50 5 0 16 -16
25 -35z m1287 15 c0 -5 -15 -9 -32 -9 l-33 1 30 8 c17 4 31 8 33 9 1 0 2 -3 2
-9z m1160 -5 c0 -8 -7 -15 -15 -15 -26 0 -18 20 13 29 1 1 2 -6 2 -14z m453 8
c-7 -2 -19 -2 -25 0 -7 3 -2 5 12 5 14 0 19 -2 13 -5z m-3423 -13 c0 -5 -4
-10 -10 -10 -5 0 -10 5 -10 10 0 6 5 10 10 10 6 0 10 -4 10 -10z m704 -8 c5
-9 -12 -82 -19 -82 -2 0 -10 3 -19 6 -21 8 -20 29 2 59 18 26 28 30 36 17z
m216 -14 c0 -5 -19 -7 -42 -4 -53 6 -50 5 -44 14 6 11 86 2 86 -10z m-1400 2
c0 -5 -5 -10 -11 -10 -5 0 -7 5 -4 10 3 6 8 10 11 10 2 0 4 -4 4 -10z m1465 0
c3 -5 -3 -10 -15 -10 -12 0 -18 5 -15 10 3 6 10 10 15 10 5 0 12 -4 15 -10z
m39 4 c23 -9 20 -23 -4 -17 -11 3 -20 9 -20 14 0 11 3 11 24 3z m2401 -4 c7
-12 -2 -12 -30 0 -19 8 -19 9 2 9 12 1 25 -3 28 -9z m-3186 -22 c0 -13 -4 -32
-8 -43 -7 -18 -8 -17 -14 7 -8 29 0 58 14 58 5 0 9 -10 8 -22z m881 12 c0 -5
-4 -10 -10 -10 -5 0 -10 5 -10 10 0 6 5 10 10 10 6 0 10 -4 10 -10z m740 6 c0
-3 -4 -8 -10 -11 -5 -3 -10 -1 -10 4 0 6 5 11 10 11 6 0 10 -2 10 -4z m1615
-6 c-3 -5 -12 -7 -20 -3 -21 7 -19 13 6 13 11 0 18 -4 14 -10z m-3036 -23 c13
-15 19 -30 15 -41 -6 -15 -7 -15 -20 1 -12 17 -13 16 -7 -4 9 -39 -15 -25 -26
14 -16 57 0 69 38 30z m1101 13 c0 -5 -2 -10 -4 -10 -3 0 -8 5 -11 10 -3 6 -1
10 4 10 6 0 11 -4 11 -10z m1817 4 c-3 -3 -12 -4 -19 -1 -8 3 -5 6 6 6 11 1
17 -2 13 -5z m-3243 -57 c11 -10 14 -16 6 -13 -8 3 -23 9 -32 12 -19 7 -31 31
-22 46 4 6 11 3 17 -8 5 -11 19 -27 31 -37z m686 43 c0 -5 -5 -10 -11 -10 -5
0 -7 5 -4 10 3 6 8 10 11 10 2 0 4 -4 4 -10z m1167 -37 c-3 -10 -5 -2 -5 17 0
19 2 27 5 18 2 -10 2 -26 0 -35z m-1099 19 c2 -7 -3 -12 -12 -12 -9 0 -16 7
-16 16 0 17 22 14 28 -4z m2522 10 c0 -4 -9 -8 -20 -9 -11 -1 -20 2 -20 5 0 4
9 8 20 9 11 1 20 -2 20 -5z m-2085 -11 c3 -5 1 -12 -5 -16 -5 -3 -10 1 -10 9
0 18 6 21 15 7z m255 1 c0 -5 -27 -13 -60 -18 -33 -6 -60 -7 -60 -2 0 4 17 10
38 13 20 4 42 8 47 10 19 6 35 5 35 -3z m357 -14 c-3 -8 -6 -5 -6 6 -1 11 2
17 5 13 3 -3 4 -12 1 -19z m1546 15 c-13 -2 -33 -2 -45 0 -13 2 -3 4 22 4 25
0 35 -2 23 -4z m67 -9 c0 -2 -7 -4 -15 -4 -8 0 -15 4 -15 10 0 5 7 7 15 4 8
-4 15 -8 15 -10z m-2613 0 c-3 -3 -12 -4 -19 -1 -8 3 -5 6 6 6 11 1 17 -2 13
-5z m133 -4 c0 -13 -11 -13 -30 0 -12 8 -11 10 8 10 12 0 22 -4 22 -10z m190
0 c0 -5 -2 -10 -4 -10 -3 0 -8 5 -11 10 -3 6 -1 10 4 10 6 0 11 -4 11 -10z
m40 0 c0 -5 -4 -10 -10 -10 -5 0 -10 5 -10 10 0 6 5 10 10 10 6 0 10 -4 10
-10z m585 -15 c28 5 29 4 11 -10 -18 -13 -66 -21 -66 -11 0 17 14 36 19 27 4
-6 20 -8 36 -6z m-1105 -4 c0 -4 -5 -22 -11 -40 -12 -35 -29 -41 -29 -10 0 11
-4 18 -10 14 -5 -3 -8 -11 -6 -18 1 -7 1 -9 -1 -4 -7 12 -20 8 -27 -9 -3 -8
-2 -13 3 -9 5 3 19 -7 31 -22 20 -26 20 -28 4 -40 -10 -7 -21 -13 -26 -13 -4
0 -8 -13 -8 -30 0 -22 4 -28 15 -24 8 4 15 17 15 30 0 46 18 24 25 -31 4 -33
11 -55 19 -55 19 0 18 -51 -1 -66 -17 -12 -16 -13 4 -14 17 0 21 -5 18 -26 -1
-15 1 -38 5 -53 5 -17 9 15 10 89 2 131 4 157 13 167 11 11 8 -423 -3 -452 -8
-20 -15 -26 -30 -22 -16 4 -20 0 -20 -23 0 -16 6 -30 13 -33 6 -2 -3 -4 -20
-5 -26 0 -33 3 -33 19 0 17 -3 18 -20 9 -11 -6 -19 -14 -19 -18 3 -19 -3 -22
-21 -12 -19 10 -20 20 -18 281 1 186 -2 273 -9 280 -16 16 -55 4 -71 -21 -15
-24 -6 -70 14 -70 19 0 18 -19 -2 -27 -13 -5 -15 -23 -13 -117 2 -63 8 -114
13 -118 7 -5 7 -8 -1 -8 -10 0 -13 -28 -13 -105 0 -72 -4 -105 -11 -105 -7 0
-18 -8 -25 -17 -12 -17 -13 -16 -14 5 0 13 -6 22 -15 22 -9 0 -15 -9 -15 -21
0 -11 -10 -29 -22 -40 -14 -11 -18 -18 -10 -19 10 0 10 -4 -2 -15 -17 -17 -41
-10 -65 19 -11 13 -10 17 3 22 9 3 16 14 16 23 0 14 -2 14 -10 1 -7 -11 -10
-11 -10 -2 0 7 -5 10 -10 7 -6 -3 -14 4 -19 17 l-9 23 -7 -27 c-8 -30 -41 -35
-50 -6 -6 16 -8 15 -40 -4 -19 -11 -35 -24 -35 -29 0 -5 -4 -9 -10 -9 -21 0
-9 28 15 34 38 10 30 25 -12 23 l-38 -2 0 310 c0 278 -2 313 -18 343 -10 18
-13 32 -7 32 22 0 40 -73 52 -209 7 -78 16 -141 20 -141 4 0 5 6 2 14 -6 16
11 29 45 32 18 2 21 0 12 -9 -14 -14 -15 -67 0 -67 6 0 9 -7 6 -15 -4 -8 -2
-17 3 -20 6 -4 5 -14 -3 -26 -9 -15 -9 -21 0 -27 10 -6 16 -45 22 -130 1 -10
5 -9 17 3 9 9 13 19 10 22 -4 4 4 13 16 20 18 10 20 12 6 13 -11 0 -18 8 -18
19 0 11 -3 26 -6 35 -4 12 0 16 15 16 12 0 21 6 21 15 0 15 -9 18 -40 16 -10
0 -11 1 -2 5 6 3 12 10 12 15 0 6 -5 7 -11 3 -8 -5 -8 -1 0 14 11 21 46 20 54
-2 2 -6 3 -3 1 7 -1 11 3 16 13 15 9 -2 18 3 21 11 3 10 0 12 -12 8 -13 -5
-16 0 -16 28 0 26 4 35 18 36 10 0 12 3 5 6 -7 2 -13 16 -13 29 0 30 33 33 64
7 14 -13 17 -13 9 -2 -7 8 -9 26 -6 39 4 16 3 21 -5 16 -18 -11 -15 25 4 45 9
10 17 30 17 43 0 14 5 24 11 23 6 -1 11 7 11 18 1 11 6 19 13 18 6 -2 26 6 44
17 35 21 83 26 107 11 11 -7 24 0 47 25 30 32 64 45 64 25z m2667 3 c-3 -3
-12 -4 -19 -1 -8 3 -5 6 6 6 11 1 17 -2 13 -5z m-4327 -14 c0 -5 -2 -10 -4
-10 -3 0 -8 5 -11 10 -3 6 -1 10 4 10 6 0 11 -4 11 -10z m4373 3 c-7 -2 -19
-2 -25 0 -7 3 -2 5 12 5 14 0 19 -2 13 -5z m-2533 -16 c0 -9 -14 -11 -47 -8
l-48 5 35 7 c55 10 60 10 60 -4z m160 -8 c0 -5 -10 -9 -21 -9 -18 0 -19 2 -9
15 12 15 30 12 30 -6z m40 0 c0 -5 -7 -9 -15 -9 -9 0 -12 6 -9 15 6 15 24 11
24 -6z m120 -1 c0 -5 -10 -8 -22 -9 -13 0 -34 -2 -48 -4 -29 -3 -43 3 -35 15
6 10 105 8 105 -2z m330 2 c0 -5 -5 -10 -11 -10 -5 0 -7 5 -4 10 3 6 8 10 11
10 2 0 4 -4 4 -10z m1846 -8 c-21 -2 -42 0 -47 5 -4 4 13 6 39 3 l47 -5 -39
-3z m-3172 -36 c-3 -14 -10 -26 -15 -26 -10 0 -12 53 -2 64 13 12 24 -11 17
-38z m129 22 c6 -17 -20 -68 -35 -68 -6 0 -9 3 -6 6 4 3 0 17 -7 31 -8 15 -12
30 -9 35 8 13 52 9 57 -4z m1762 3 c3 -5 1 -12 -5 -16 -5 -3 -10 1 -10 9 0 18
6 21 15 7z m-1240 -11 c3 -5 11 -7 18 -5 7 3 26 1 42 -4 25 -8 17 -9 -42 -10
-59 -1 -73 2 -73 14 0 17 45 21 55 5z m2510 -10 c3 -5 -3 -10 -14 -10 -11 0
-23 5 -26 10 -3 6 3 10 14 10 11 0 23 -4 26 -10z m-2325 -10 c0 -5 -7 -10 -15
-10 -8 0 -15 5 -15 10 0 6 7 10 15 10 8 0 15 -4 15 -10z m70 6 c0 -3 -4 -8
-10 -11 -5 -3 -10 -1 -10 4 0 6 5 11 10 11 6 0 10 -2 10 -4z m2310 -6 c0 -5
-6 -10 -14 -10 -8 0 -18 5 -21 10 -3 6 3 10 14 10 12 0 21 -4 21 -10z m35 0
c3 -5 -1 -10 -10 -10 -9 0 -13 5 -10 10 3 6 8 10 10 10 2 0 7 -4 10 -10z
m-2735 -33 c0 -13 -6 -32 -14 -43 -14 -18 -15 -18 -21 11 -4 17 -8 36 -11 43
-2 7 6 12 21 12 19 0 25 -5 25 -23z m2580 13 c0 -5 -4 -10 -10 -10 -5 0 -10 5
-10 10 0 6 5 10 10 10 6 0 10 -4 10 -10z m-4140 -10 c0 -5 -4 -10 -10 -10 -5
0 -10 5 -10 10 0 6 5 10 10 10 6 0 10 -4 10 -10z m830 -11 c0 -11 -4 -17 -10
-14 -5 3 -10 13 -10 21 0 8 5 14 10 14 6 0 10 -9 10 -21z m3370 11 c0 -5 -4
-10 -10 -10 -5 0 -10 5 -10 10 0 6 5 10 10 10 6 0 10 -4 10 -10z m60 0 c0 -5
-9 -10 -20 -10 -11 0 -20 5 -20 10 0 6 9 10 20 10 11 0 20 -4 20 -10z m-1840
-10 c0 -7 -90 -28 -155 -36 -58 -8 -53 10 5 20 19 4 51 10 70 15 38 8 80 9 80
1z m445 -21 c-3 -8 -17 -16 -30 -17 -33 -2 -36 35 -2 40 27 5 39 -4 32 -23z
m-385 11 c0 -5 -10 -10 -22 -11 -13 0 -17 -3 -10 -6 17 -7 15 -23 -3 -23 -15
0 -21 31 -8 43 10 11 43 8 43 -3z m647 -6 c-3 -3 -12 -4 -19 -1 -8 3 -5 6 6 6
11 1 17 -2 13 -5z m853 -4 c0 -5 -5 -10 -11 -10 -5 0 -7 5 -4 10 3 6 8 10 11
10 2 0 4 -4 4 -10z m-2928 -51 l-9 -34 -8 27 c-9 34 1 66 16 51 7 -7 7 -22 1
-44z m88 34 c0 -10 -3 -35 -6 -56 -6 -34 -8 -36 -20 -19 -19 28 -26 75 -11 84
20 13 37 9 37 -9z m3067 11 c-3 -3 -12 -4 -19 -1 -8 3 -5 6 6 6 11 1 17 -2 13
-5z m53 -6 c0 -4 -9 -8 -21 -8 -11 0 -18 4 -15 8 3 5 12 9 21 9 8 0 15 -4 15
-9z m-2855 -8 c3 -6 -1 -7 -9 -4 -12 5 -16 -1 -16 -22 0 -20 -3 -25 -9 -15 -7
11 -9 11 -14 0 -3 -11 -6 -10 -12 4 -13 32 42 66 60 37z m2890 0 c3 -5 2 -10
-4 -10 -5 0 -13 5 -16 10 -3 6 -2 10 4 10 5 0 13 -4 16 -10z m-3378 -22 c-3
-8 -6 -5 -6 6 -1 11 2 17 5 13 3 -3 4 -12 1 -19z m3288 2 c3 -5 -3 -10 -14
-10 -11 0 -23 5 -26 10 -3 6 3 10 14 10 11 0 23 -4 26 -10z m-1845 -10 c0 -5
-7 -10 -16 -10 -8 0 -12 5 -9 10 3 6 10 10 16 10 5 0 9 -4 9 -10z m1489 -4
c-12 -10 -49 -16 -49 -7 0 5 10 11 23 13 22 4 34 1 26 -6z m-2299 -10 c0 -3
-4 -8 -10 -11 -5 -3 -10 -1 -10 4 0 6 5 11 10 11 6 0 10 -2 10 -4z m2653 -13
c-7 -2 -21 -2 -30 0 -10 3 -4 5 12 5 17 0 24 -2 18 -5z m-2803 -18 c0 -8 -4
-15 -10 -15 -5 0 -10 -14 -10 -31 0 -17 4 -28 10 -24 6 3 10 -3 10 -14 0 -11
-4 -23 -10 -26 -14 -8 -13 -42 1 -47 9 -3 8 -15 -2 -43 -11 -30 -11 -39 -1
-42 14 -5 16 -33 2 -33 -6 0 -10 -30 -10 -71 0 -44 4 -68 10 -64 6 3 10 0 10
-8 0 -16 -24 -30 -34 -20 -3 3 -3 54 1 112 5 91 3 109 -11 123 -20 20 -21 38
-2 38 11 0 14 19 15 81 1 45 4 85 7 90 8 14 24 10 24 -6z m2860 3 c0 -11 -12
-10 -30 2 -12 7 -10 9 8 7 12 0 22 -5 22 -9z m-3785 -18 c3 -5 1 -10 -4 -10
-6 0 -11 5 -11 10 0 6 2 10 4 10 3 0 8 -4 11 -10z m1669 1 c10 -16 -87 -33
-209 -38 -107 -3 -117 -2 -96 10 16 10 35 12 57 7 34 -8 98 -4 149 9 17 4 40
7 53 6 12 -1 22 2 22 7 0 11 17 10 24 -1z m276 -1 c0 -5 -12 -10 -26 -10 -14
0 -23 4 -19 10 3 6 15 10 26 10 10 0 19 -4 19 -10z m-76 -20 c-33 -13 -109
-23 -101 -14 12 13 90 32 106 26 11 -4 9 -7 -5 -12z m1401 1 c-3 -6 -11 -11
-16 -11 -5 0 -4 6 3 14 14 16 24 13 13 -3z m-2615 0 c0 -20 -13 -41 -21 -35
-15 9 -10 44 6 44 8 0 15 -4 15 -9z m3130 -1 c0 -5 -7 -7 -15 -4 -8 4 -15 8
-15 10 0 2 7 4 15 4 8 0 15 -4 15 -10z m-3430 -26 c0 -8 -4 -12 -10 -9 -5 3
-10 10 -10 16 0 5 5 9 10 9 6 0 10 -7 10 -16z m1880 2 c0 -11 -19 -15 -25 -6
-3 5 1 10 9 10 9 0 16 -2 16 -4z m210 -6 c0 -5 -3 -10 -7 -10 -5 0 -18 -3 -30
-6 -13 -4 -23 -2 -23 4 0 10 19 18 48 21 6 0 12 -3 12 -9z m970 6 c0 -2 -7 -6
-15 -10 -8 -3 -15 -1 -15 4 0 6 7 10 15 10 8 0 15 -2 15 -4z m-3014 -20 c17
-18 18 -26 2 -26 -22 0 -41 17 -34 29 9 14 15 14 32 -3z m1244 4 c0 -5 -7 -10
-15 -10 -8 0 -15 5 -15 10 0 6 7 10 15 10 8 0 15 -4 15 -10z m540 -12 c0 -6
-7 -7 -16 -4 -9 3 -18 6 -20 6 -3 0 -3 4 1 10 7 11 35 2 35 -12z m720 18 c0
-3 -4 -8 -10 -11 -5 -3 -10 -1 -10 4 0 6 5 11 10 11 6 0 10 -2 10 -4z m-2020
-20 c0 -8 -4 -18 -10 -21 -5 -3 -10 3 -10 14 0 12 5 21 10 21 6 0 10 -6 10
-14z m-228 -31 c-5 -46 -21 -50 -25 -6 -1 11 -5 21 -9 21 -4 0 -8 5 -8 11 0 6
10 9 23 7 18 -2 21 -8 19 -33z m3068 25 c0 -5 -2 -10 -4 -10 -3 0 -8 5 -11 10
-3 6 -1 10 4 10 6 0 11 -4 11 -10z m-1590 -14 c0 -9 -7 -12 -20 -9 -11 3 -20
9 -20 14 0 5 9 9 20 9 11 0 20 -6 20 -14z m1180 10 c0 -3 -4 -8 -10 -11 -5 -3
-10 -1 -10 4 0 6 5 11 10 11 6 0 10 -2 10 -4z m310 -6 c0 -13 -41 -50 -57 -50
-25 0 -14 38 15 48 36 14 42 14 42 2z m-3270 -25 c0 -14 -4 -25 -10 -25 -11 0
-14 33 -3 43 11 11 13 8 13 -18z m87 3 c-3 -8 -6 -5 -6 6 -1 11 2 17 5 13 3
-3 4 -12 1 -19z m1473 12 c0 -5 -4 -10 -10 -10 -5 0 -10 5 -10 10 0 6 5 10 10
10 6 0 10 -4 10 -10z m270 -10 c0 -13 -11 -13 -30 0 -12 8 -11 10 8 10 12 0
22 -4 22 -10z m-75 -10 c3 -5 1 -10 -4 -10 -6 0 -11 5 -11 10 0 6 2 10 4 10 3
0 8 -4 11 -10z m442 4 c-3 -3 -12 -4 -19 -1 -8 3 -5 6 6 6 11 1 17 -2 13 -5z
m273 -10 c0 -8 -5 -12 -10 -9 -6 4 -8 11 -5 16 9 14 15 11 15 -7z m590 6 c0
-5 -8 -10 -17 -10 -15 0 -16 2 -3 10 19 12 20 12 20 0z m370 0 c0 -11 -21 -11
-65 0 -27 7 -25 8 18 9 26 0 47 -3 47 -9z m-3402 -39 c-15 -5 -19 4 -11 24 6
18 7 18 13 -1 4 -10 3 -21 -2 -23z m1697 18 c4 -6 5 -12 2 -15 -7 -7 -37 7
-37 17 0 13 27 11 35 -2z m-2280 -9 c3 -5 1 -10 -4 -10 -6 0 -11 5 -11 10 0 6
2 10 4 10 3 0 8 -4 11 -10z m2435 -12 c0 -13 -32 -6 -37 9 -3 7 3 9 16 6 12
-3 21 -10 21 -15z m1490 13 c0 -5 -9 -7 -20 -4 -11 3 -20 7 -20 9 0 2 9 4 20
4 11 0 20 -4 20 -9z m50 -1 c12 -8 11 -10 -7 -10 -13 0 -23 5 -23 10 0 13 11
13 30 0z m-1640 -16 c0 -17 -22 -14 -28 4 -2 7 3 12 12 12 9 0 16 -7 16 -16z
m40 -9 c10 -13 9 -15 -9 -15 -12 0 -21 6 -21 15 0 8 4 15 9 15 5 0 14 -7 21
-15z m-1733 -17 c-3 -8 -6 -5 -6 6 -1 11 2 17 5 13 3 -3 4 -12 1 -19z m3288
12 c4 -6 -7 -10 -25 -10 -18 0 -29 4 -25 10 3 6 15 10 25 10 10 0 22 -4 25
-10z m-1595 -21 c0 -11 -3 -11 -24 -3 -23 9 -20 23 4 17 11 -3 20 -9 20 -14z
m100 -1 c0 -13 -32 -6 -37 9 -3 7 3 9 16 6 12 -3 21 -10 21 -15z m1545 12 c3
-5 -3 -10 -14 -10 -12 0 -21 5 -21 10 0 6 6 10 14 10 8 0 18 -4 21 -10z
m-2185 -20 c0 -5 -4 -10 -10 -10 -5 0 -10 5 -10 10 0 6 5 10 10 10 6 0 10 -4
10 -10z m685 -1 c4 -6 5 -12 2 -15 -7 -7 -37 7 -37 17 0 13 27 11 35 -2z
m1455 -11 c0 -6 -7 -7 -16 -4 -9 3 -22 6 -30 6 -9 0 -13 4 -10 9 7 11 56 2 56
-11z m-1420 -4 c0 -8 -4 -12 -10 -9 -5 3 -10 10 -10 16 0 5 5 9 10 9 6 0 10
-7 10 -16z m60 7 c0 -5 -9 -11 -20 -14 -20 -5 -26 3 -13 16 9 10 33 8 33 -2z
m1204 0 c3 -5 -1 -11 -9 -15 -9 -3 -15 0 -15 9 0 16 16 20 24 6z m-1779 -10
c3 -5 1 -12 -5 -16 -5 -3 -10 1 -10 9 0 18 6 21 15 7z m45 5 c0 -3 -4 -8 -10
-11 -5 -3 -10 -1 -10 4 0 6 5 11 10 11 6 0 10 -2 10 -4z m1940 -6 c0 -5 -2
-10 -4 -10 -3 0 -8 5 -11 10 -3 6 -1 10 4 10 6 0 11 -4 11 -10z m-1860 -8 c0
-9 -100 -35 -108 -28 -2 3 18 11 44 20 59 18 64 18 64 8z m310 -2 c0 -5 -2
-10 -4 -10 -3 0 -8 5 -11 10 -3 6 -1 10 4 10 6 0 11 -4 11 -10z m-1902 -39 c2
-23 7 -31 18 -27 10 4 14 -2 14 -20 0 -19 -4 -25 -15 -20 -8 3 -15 1 -15 -4 0
-12 -50 -13 -69 -1 -17 11 -7 41 13 41 8 0 19 -7 24 -16 8 -14 10 -12 14 11 4
21 1 29 -13 32 -15 4 -17 9 -8 25 15 27 33 17 37 -21z m1297 29 c3 -5 1 -10
-4 -10 -6 0 -11 5 -11 10 0 6 2 10 4 10 3 0 8 -4 11 -10z m650 0 c3 -5 1 -10
-4 -10 -6 0 -11 5 -11 10 0 6 2 10 4 10 3 0 8 -4 11 -10z m90 -9 c-3 -6 -14
-11 -23 -11 -15 1 -15 2 2 15 21 16 32 13 21 -4z m35 9 c0 -5 -4 -10 -10 -10
-5 0 -10 5 -10 10 0 6 5 10 10 10 6 0 10 -4 10 -10z m240 6 c0 -2 -7 -6 -15
-10 -8 -3 -15 -1 -15 4 0 6 7 10 15 10 8 0 15 -2 15 -4z m1090 -9 c8 -3 24 -8
35 -10 13 -3 8 -5 -12 -6 -35 -1 -63 7 -63 19 0 8 14 7 40 -3z m-2130 -1 c0
-2 -7 -7 -16 -10 -8 -3 -12 -2 -9 4 6 10 25 14 25 6z m1754 -11 c-23 -17 -34
-19 -34 -4 0 5 5 7 10 4 6 -3 10 -1 10 4 0 6 8 11 17 11 15 0 14 -2 -3 -15z
m-1884 -5 c0 -5 -7 -10 -15 -10 -8 0 -15 5 -15 10 0 6 7 10 15 10 8 0 15 -4
15 -10z m1090 -31 c0 -4 -7 -6 -15 -3 -8 4 -15 10 -15 15 0 4 7 6 15 3 8 -4
15 -10 15 -15z m1160 12 c0 -4 -11 -6 -25 -3 -14 2 -25 6 -25 8 0 2 11 4 25 4
14 0 25 -4 25 -9z m-2120 -11 c0 -5 -8 -10 -17 -10 -15 0 -16 2 -3 10 19 12
20 12 20 0z m575 0 c3 -5 2 -10 -4 -10 -5 0 -13 5 -16 10 -3 6 -2 10 4 10 5 0
13 -4 16 -10z m315 1 c0 -11 -31 -24 -39 -16 -3 3 1 10 9 15 19 12 30 12 30 1z
m1290 -3 c0 -11 -28 -10 -35 1 -3 6 4 9 15 8 11 -1 20 -5 20 -9z m-1900 -6 c0
-4 -10 -9 -22 -9 -18 -2 -20 0 -8 7 18 12 30 13 30 2z m-963 -24 c-3 -8 -6 -5
-6 6 -1 11 2 17 5 13 3 -3 4 -12 1 -19z m1313 12 c0 -5 -2 -10 -4 -10 -3 0 -8
5 -11 10 -3 6 -1 10 4 10 6 0 11 -4 11 -10z m17 -12 c-3 -8 -6 -5 -6 6 -1 11
2 17 5 13 3 -3 4 -12 1 -19z m193 12 c0 -5 -3 -10 -7 -10 -5 0 -18 -3 -30 -6
-13 -4 -23 -2 -23 4 0 9 9 13 53 21 4 0 7 -3 7 -9z m1335 -10 c3 -5 2 -10 -4
-10 -5 0 -13 5 -16 10 -3 6 -2 10 4 10 5 0 13 -4 16 -10z m-1405 -9 c0 -5 -10
-11 -22 -14 -22 -6 -22 -6 -4 8 23 17 26 18 26 6z m110 -1 c0 -5 -8 -10 -17
-10 -15 0 -16 2 -3 10 19 12 20 12 20 0z m-890 -20 c-8 -5 -17 -7 -19 -4 -3 3
1 9 9 14 8 5 17 7 19 4 3 -3 -1 -9 -9 -14z m720 10 c0 -5 -4 -10 -10 -10 -5 0
-10 5 -10 10 0 6 5 10 10 10 6 0 10 -4 10 -10z m-500 -10 c0 -5 -5 -10 -11
-10 -5 0 -7 5 -4 10 3 6 8 10 11 10 2 0 4 -4 4 -10z m600 0 c0 -5 -7 -10 -16
-10 -8 0 -12 5 -9 10 3 6 10 10 16 10 5 0 9 -4 9 -10z m-2145 -10 c3 -5 1 -10
-4 -10 -6 0 -11 5 -11 10 0 6 2 10 4 10 3 0 8 -4 11 -10z m882 1 c10 9 17 9
21 2 4 -6 17 -13 30 -17 31 -10 27 -22 -10 -31 -18 -4 -27 -9 -20 -12 7 -3 16
-13 21 -22 9 -16 4 -17 -44 -17 -48 1 -54 3 -58 25 -3 14 2 30 14 42 11 11 16
19 13 19 -3 0 -2 5 2 12 6 9 9 9 12 0 3 -10 7 -10 19 -1z m733 -10 c0 -10 -69
-25 -77 -17 -7 7 60 34 70 29 4 -2 7 -8 7 -12z m400 9 c0 -5 -7 -10 -15 -10
-8 0 -15 5 -15 10 0 6 7 10 15 10 8 0 15 -4 15 -10z m200 -10 c-24 -15 -36
-11 -14 4 10 8 21 12 24 10 2 -3 -2 -9 -10 -14z m1130 6 c0 -3 -4 -8 -10 -11
-5 -3 -10 -1 -10 4 0 6 5 11 10 11 6 0 10 -2 10 -4z m-1480 -16 c0 -5 -4 -10
-10 -10 -5 0 -10 5 -10 10 0 6 5 10 10 10 6 0 10 -4 10 -10z m-556 -9 c3 -5
-3 -11 -14 -14 -20 -5 -26 3 -13 16 9 10 21 9 27 -2z m-707 -23 c-3 -8 -6 -5
-6 6 -1 11 2 17 5 13 3 -3 4 -12 1 -19z m1113 12 c0 -5 -8 -10 -17 -10 -15 0
-16 2 -3 10 19 12 20 12 20 0z m95 0 c8 -13 -5 -13 -25 0 -13 8 -13 10 2 10 9
0 20 -4 23 -10z m45 -21 c0 -4 -7 -6 -15 -3 -8 4 -15 10 -15 15 0 4 7 6 15 3
8 -4 15 -10 15 -15z m-470 2 c0 -5 -7 -12 -16 -15 -22 -9 -24 -8 -24 9 0 8 9
15 20 15 11 0 20 -4 20 -9z m761 -14 c-13 -13 -26 -3 -16 12 3 6 11 8 17 5 6
-4 6 -10 -1 -17z m-821 3 c0 -5 -8 -10 -17 -10 -15 0 -16 2 -3 10 19 12 20 12
20 0z m585 -1 c11 -17 2 -18 -19 -3 -17 12 -17 14 -4 14 9 0 20 -5 23 -11z
m1469 -11 c-4 -7 -15 -25 -25 -39 -10 -14 -16 -28 -14 -31 3 -3 -1 -18 -10
-34 -8 -16 -15 -23 -15 -15 0 11 -4 9 -15 -5 -8 -11 -15 -14 -15 -6 0 20 -16
14 -28 -10 -10 -22 -11 -22 -11 7 -1 24 6 35 37 53 32 20 26 22 -15 5 -7 -3
-13 0 -13 6 0 6 24 27 53 46 54 35 84 45 71 23z m-1959 -19 c-8 -12 -35 -12
-35 0 0 11 22 20 33 14 4 -2 5 -9 2 -14z m535 11 c8 -5 12 -12 9 -15 -8 -8
-39 5 -39 16 0 11 11 11 30 -1z m-1035 -30 c3 -5 -1 -10 -9 -10 -9 0 -16 5
-16 10 0 6 4 10 9 10 6 0 13 -4 16 -10z m415 1 c0 -5 -9 -11 -20 -14 -13 -3
-20 0 -20 9 0 8 9 14 20 14 11 0 20 -4 20 -9z m-1326 -11 c7 0 12 -10 10 -22
-1 -13 -3 -27 -3 -31 -1 -4 -12 0 -26 10 -28 20 -35 59 -9 49 9 -3 21 -6 28
-6z m334 -19 c41 -8 99 -51 70 -51 -8 0 -6 -5 5 -11 14 -8 17 -25 17 -104 0
-105 -2 -109 -76 -121 -31 -4 -43 -2 -56 13 -16 18 -16 19 7 18 14 -1 28 -5
32 -8 14 -15 53 -7 53 11 -1 21 -25 54 -33 45 -4 -3 -7 2 -7 13 0 15 -6 19
-27 18 -16 -1 -34 -3 -40 -3 -7 -1 -13 -8 -13 -17 0 -10 -7 -14 -22 -12 -22 3
-23 8 -25 93 -2 124 10 136 115 116z m-118 -11 c0 -5 -4 -10 -10 -10 -5 0 -10
5 -10 10 0 6 5 10 10 10 6 0 10 -4 10 -10z m1105 0 c3 -5 1 -10 -4 -10 -6 0
-11 5 -11 10 0 6 2 10 4 10 3 0 8 -4 11 -10z m629 1 c3 -4 3 -11 0 -14 -8 -8
-34 3 -34 14 0 11 27 12 34 0z m-48 -28 c-8 -8 -36 5 -36 17 0 7 6 7 21 0 11
-7 18 -14 15 -17z m94 1 c0 -2 -7 -4 -15 -4 -8 0 -15 4 -15 10 0 5 7 7 15 4 8
-4 15 -8 15 -10z m220 6 c0 -5 -7 -10 -16 -10 -8 0 -12 5 -9 10 3 6 10 10 16
10 5 0 9 -4 9 -10z m-130 -10 c0 -5 -7 -10 -16 -10 -8 0 -12 5 -9 10 3 6 10
10 16 10 5 0 9 -4 9 -10z m-330 -10 c0 -5 -4 -10 -10 -10 -5 0 -10 5 -10 10 0
6 5 10 10 10 6 0 10 -4 10 -10z m280 0 c0 -5 -2 -10 -4 -10 -3 0 -8 5 -11 10
-3 6 -1 10 4 10 6 0 11 -4 11 -10z m-240 -10 c8 -5 12 -12 9 -15 -8 -8 -39 5
-39 16 0 11 11 11 30 -1z m-600 -16 c0 -7 -8 -10 -20 -7 -11 3 -20 9 -20 14 0
4 9 7 20 6 11 -1 20 -7 20 -13z m810 6 c0 -5 -4 -10 -10 -10 -5 0 -10 5 -10
10 0 6 5 10 10 10 6 0 10 -4 10 -10z m90 1 c0 -11 -31 -24 -39 -16 -3 3 1 10
9 15 19 12 30 12 30 1z m1400 -1 c0 -5 -2 -10 -4 -10 -3 0 -8 5 -11 10 -3 6
-1 10 4 10 6 0 11 -4 11 -10z m-1650 -10 c8 -5 12 -12 9 -15 -8 -8 -39 5 -39
16 0 11 11 11 30 -1z m190 0 c0 -5 -4 -10 -10 -10 -5 0 -10 5 -10 10 0 6 5 10
10 10 6 0 10 -4 10 -10z m1430 -6 c0 -8 -5 -12 -10 -9 -6 4 -8 11 -5 16 9 14
15 11 15 -7z m-1570 -25 c0 -4 -7 -6 -15 -3 -8 4 -15 10 -15 15 0 4 7 6 15 3
8 -4 15 -10 15 -15z m57 15 c-3 -3 -12 -4 -19 -1 -8 3 -5 6 6 6 11 1 17 -2 13
-5z m203 -4 c0 -5 -5 -10 -11 -10 -5 0 -7 5 -4 10 3 6 8 10 11 10 2 0 4 -4 4
-10z m-1202 -23 c20 -15 14 -23 -25 -35 -45 -14 -54 -9 -51 28 2 26 5 28 33
23 16 -3 36 -10 43 -16z m222 3 c0 -5 -9 -6 -20 -3 -11 3 -17 9 -15 14 7 10
35 1 35 -11z m1020 0 c-8 -5 -17 -7 -19 -4 -3 3 1 9 9 14 8 5 17 7 19 4 3 -3
-1 -9 -9 -14z m-250 -5 c14 -16 10 -18 -14 -9 -9 3 -16 10 -16 15 0 14 16 11
30 -6z m1350 0 c-7 -9 -15 -13 -19 -10 -3 3 1 10 9 15 21 14 24 12 10 -5z
m-1140 -5 c0 -5 -4 -10 -9 -10 -5 0 -18 -3 -28 -6 -16 -5 -16 -4 1 10 23 18
36 20 36 6z m-153 -26 c-7 -7 -37 7 -37 17 0 6 9 5 21 -1 11 -7 19 -14 16 -16z
m1115 4 c-7 -7 -12 -8 -12 -2 0 14 12 26 19 19 2 -3 -1 -11 -7 -17z m-1277 2
c3 -5 3 -15 -1 -21 -6 -11 -23 6 -24 24 0 10 18 9 25 -3z m255 1 c0 -11 -31
-24 -39 -16 -3 3 1 10 9 15 19 12 30 12 30 1z m-830 -11 c0 -5 -7 -10 -16 -10
-8 0 -12 5 -9 10 3 6 10 10 16 10 5 0 9 -4 9 -10z m30 0 c0 -5 -2 -10 -4 -10
-3 0 -8 5 -11 10 -3 6 -1 10 4 10 6 0 11 -4 11 -10z m740 0 c0 -5 -4 -10 -10
-10 -5 0 -10 5 -10 10 0 6 5 10 10 10 6 0 10 -4 10 -10z m-300 -26 c14 -7 20
-13 14 -14 -15 0 -84 29 -84 36 0 7 38 -5 70 -22z m158 7 c3 -8 -1 -12 -9 -9
-7 2 -15 10 -17 17 -3 8 1 12 9 9 7 -2 15 -10 17 -17z m-1780 -3 c13 -13 16
-48 4 -48 -14 0 -32 23 -32 42 0 21 11 23 28 6z m1432 2 c0 -5 -4 -10 -10 -10
-5 0 -10 5 -10 10 0 6 5 10 10 10 6 0 10 -4 10 -10z m1790 6 c0 -3 -4 -8 -10
-11 -5 -3 -10 -1 -10 4 0 6 5 11 10 11 6 0 10 -2 10 -4z m-1390 -21 c14 -16
10 -18 -14 -9 -9 3 -16 10 -16 15 0 14 16 11 30 -6z m1428 6 c10 -6 4 -14 -25
-32 -21 -12 -41 -27 -44 -31 -3 -5 -20 -3 -38 3 l-33 12 32 13 c18 8 43 14 56
14 15 0 24 6 24 15 0 17 9 19 28 6z m-2078 -11 c0 -5 -7 -10 -16 -10 -8 0 -12
5 -9 10 3 6 10 10 16 10 5 0 9 -4 9 -10z m856 -5 c-11 -8 -25 -15 -30 -15 -6
0 -2 7 8 15 11 8 25 15 30 15 6 0 2 -7 -8 -15z m-746 -4 c0 -12 -20 -25 -27
-18 -7 7 6 27 18 27 5 0 9 -4 9 -9z m578 -8 c-2 -9 -9 -18 -16 -19 -7 -1 -8 0
-3 2 6 3 7 12 4 20 -3 8 0 14 7 14 6 0 10 -8 8 -17z m-228 -3 c0 -5 -4 -10
-10 -10 -5 0 -10 5 -10 10 0 6 5 10 10 10 6 0 10 -4 10 -10z m340 1 c0 -11
-31 -24 -39 -16 -3 3 1 10 9 15 19 12 30 12 30 1z m-750 -12 c0 -5 -4 -8 -9
-5 -5 4 -11 0 -14 -6 -2 -7 -8 -9 -13 -5 -5 4 -2 12 6 17 20 13 30 12 30 -1z
m690 1 c0 -5 -4 -10 -10 -10 -5 0 -10 5 -10 10 0 6 5 10 10 10 6 0 10 -4 10
-10z m-840 -20 c0 -5 -11 -10 -25 -10 -14 0 -25 5 -25 10 0 6 11 10 25 10 14
0 25 -4 25 -10z m76 -5 c-22 -17 -52 -20 -60 -6 -9 14 5 21 43 21 34 -1 35 -2
17 -15z m2224 -5 c0 -5 -5 -10 -11 -10 -5 0 -7 5 -4 10 3 6 8 10 11 10 2 0 4
-4 4 -10z m-2556 -36 c7 -17 0 -34 -14 -34 -11 0 -21 30 -14 41 8 14 21 11 28
-7z m2181 6 c-3 -6 10 -8 35 -5 22 2 40 0 40 -4 0 -9 -40 -47 -46 -44 -7 4
-39 -10 -56 -25 -17 -14 -18 -13 -18 11 0 15 9 32 22 41 12 9 19 16 15 16 -5
0 -5 5 -2 10 3 6 8 10 11 10 3 0 2 -4 -1 -10z m270 -10 c3 -5 1 -10 -4 -10 -6
0 -11 5 -11 10 0 6 2 10 4 10 3 0 8 -4 11 -10z m-4280 -10 c3 -5 1 -10 -4 -10
-6 0 -11 5 -11 10 0 6 2 10 4 10 3 0 8 -4 11 -10z m2872 4 c-3 -3 -12 -4 -19
-1 -8 3 -5 6 6 6 11 1 17 -2 13 -5z m-2397 -38 c-14 -14 -24 0 -16 21 6 15 8
15 16 3 6 -9 5 -19 0 -24z m1305 13 c-10 -15 -25 -10 -19 6 4 8 10 12 15 9 5
-3 7 -10 4 -15z m660 11 c-3 -5 -10 -10 -16 -10 -5 0 -9 5 -9 10 0 6 7 10 16
10 8 0 12 -4 9 -10z m1480 0 c-3 -5 -11 -10 -16 -10 -6 0 -7 5 -4 10 3 6 11
10 16 10 6 0 7 -4 4 -10z m325 0 c0 -5 -4 -10 -10 -10 -5 0 -10 5 -10 10 0 6
5 10 10 10 6 0 10 -4 10 -10z m-3874 -36 c-5 -13 -10 -14 -18 -6 -6 6 -8 18
-4 28 5 13 10 14 18 6 6 -6 8 -18 4 -28z m1334 17 c0 -10 -7 -21 -15 -25 -15
-5 -22 24 -8 37 12 13 23 7 23 -12z m690 9 c0 -5 -5 -10 -11 -10 -5 0 -7 5 -4
10 3 6 8 10 11 10 2 0 4 -4 4 -10z m1715 1 c3 -5 1 -12 -5 -16 -5 -3 -10 1
-10 9 0 18 6 21 15 7z m-3855 -17 c0 -8 -5 -12 -10 -9 -6 4 -8 11 -5 16 9 14
15 11 15 -7z m60 -4 c0 -11 -7 -20 -15 -20 -15 0 -21 21 -8 33 12 13 23 7 23
-13z m1350 -5 c0 -14 -24 -27 -34 -18 -3 3 -1 14 5 25 11 20 29 16 29 -7z
m2467 3 c-3 -8 -6 -5 -6 6 -1 11 2 17 5 13 3 -3 4 -12 1 -19z m-3497 2 c0 -5
-4 -10 -10 -10 -5 0 -10 5 -10 10 0 6 5 10 10 10 6 0 10 -4 10 -10z m240 -39
c0 -6 -7 -8 -15 -5 -8 4 -15 15 -15 26 0 17 2 18 15 4 8 -8 15 -19 15 -25z
m237 7 c-3 -7 -5 -2 -5 12 0 14 2 19 5 13 2 -7 2 -19 0 -25z m426 -3 c1 -5 -6
-11 -15 -13 -11 -2 -18 3 -18 13 0 17 30 18 33 0z m2607 5 c0 -5 -4 -10 -10
-10 -5 0 -10 5 -10 10 0 6 5 10 10 10 6 0 10 -4 10 -10z m-2063 -16 c-3 -3
-12 -4 -19 -1 -8 3 -5 6 6 6 11 1 17 -2 13 -5z m163 -4 c0 -5 -2 -10 -4 -10
-3 0 -8 5 -11 10 -3 6 -1 10 4 10 6 0 11 -4 11 -10z m-1994 -27 c-10 -10 -19
5 -10 18 6 11 8 11 12 0 2 -7 1 -15 -2 -18z m692 -10 c18 -39 15 -49 -8 -28
-19 17 -28 55 -12 55 4 0 13 -12 20 -27z m1099 5 c-3 -8 -6 -5 -6 6 -1 11 2
17 5 13 3 -3 4 -12 1 -19z m1003 12 c0 -5 -4 -10 -10 -10 -5 0 -10 5 -10 10 0
6 5 10 10 10 6 0 10 -4 10 -10z m-2900 -10 c0 -5 -5 -10 -11 -10 -5 0 -7 5 -4
10 3 6 8 10 11 10 2 0 4 -4 4 -10z m1997 4 c-3 -3 -12 -4 -19 -1 -8 3 -5 6 6
6 11 1 17 -2 13 -5z m-60 -10 c-3 -3 -12 -4 -19 -1 -8 3 -5 6 6 6 11 1 17 -2
13 -5z m173 -4 c0 -5 -9 -10 -21 -10 -11 0 -17 5 -14 10 3 6 13 10 21 10 8 0
14 -4 14 -10z m-242 -22 c-6 -18 -28 -21 -28 -4 0 9 7 16 16 16 9 0 14 -5 12
-12z m-40 -10 c-6 -18 -28 -21 -28 -4 0 9 7 16 16 16 9 0 14 -5 12 -12z m2312
7 c0 -2 -15 -12 -32 -20 l-33 -16 25 20 c24 20 40 26 40 16z m-2365 -14 c3 -5
1 -12 -5 -16 -5 -3 -10 1 -10 9 0 18 6 21 15 7z m350 0 c-17 -15 -107 -41
-139 -40 -20 1 -24 3 -11 6 11 2 29 8 40 12 67 28 129 40 110 22z m865 -1 c0
-9 -16 -14 -22 -8 -2 2 -14 -5 -28 -15 -29 -20 -61 -24 -42 -5 10 10 63 33 85
37 4 0 7 -3 7 -9z m-3100 -20 c0 -11 -7 -20 -15 -20 -15 0 -21 21 -8 33 12 13
23 7 23 -13z m1850 0 c0 -5 -4 -10 -10 -10 -5 0 -10 5 -10 10 0 6 5 10 10 10
6 0 10 -4 10 -10z m450 0 c0 -5 -2 -10 -4 -10 -3 0 -8 5 -11 10 -3 6 -1 10 4
10 6 0 11 -4 11 -10z m1880 -9 c0 -12 -20 -25 -27 -18 -7 7 6 27 18 27 5 0 9
-4 9 -9z m-1940 -11 c0 -5 -17 -12 -37 -16 -21 -4 -46 -11 -55 -16 -12 -6 -18
-5 -18 2 0 6 6 12 13 14 6 2 26 8 42 14 40 13 55 14 55 2z m736 -16 c-22 -15
-46 -19 -46 -6 0 9 52 31 60 24 3 -2 -4 -10 -14 -18z m1154 16 c0 -5 -5 -10
-11 -10 -5 0 -7 5 -4 10 3 6 8 10 11 10 2 0 4 -4 4 -10z m-3965 -10 c3 -5 1
-10 -4 -10 -6 0 -11 5 -11 10 0 6 2 10 4 10 3 0 8 -4 11 -10z m52 -12 c-3 -8
-6 -5 -6 6 -1 11 2 17 5 13 3 -3 4 -12 1 -19z m1968 -37 c-53 -23 -95 -33 -95
-23 0 8 15 14 95 37 34 10 34 1 0 -14z m-955 -6 c0 -8 -4 -15 -10 -15 -5 0
-10 7 -10 15 0 8 5 15 10 15 6 0 10 -7 10 -15z m1400 5 c0 -5 -2 -10 -4 -10
-3 0 -8 5 -11 10 -3 6 -1 10 4 10 6 0 11 -4 11 -10z m415 1 c3 -5 1 -12 -5
-16 -5 -3 -10 1 -10 9 0 18 6 21 15 7z m-315 -22 c0 -5 5 -7 10 -4 6 3 10 1
10 -4 0 -13 -3 -13 -24 -5 -18 7 -22 24 -6 24 6 0 10 -5 10 -11z m1310 2 c0
-5 -7 -11 -15 -15 -15 -5 -20 5 -8 17 9 10 23 9 23 -2z m-1050 -21 c-19 -12
-30 -12 -30 -1 0 10 31 20 40 14 2 -2 -2 -8 -10 -13z m969 -1 c-22 -14 -33
-10 -19 6 7 8 17 12 22 9 6 -4 5 -10 -3 -15z m-1779 2 c0 -10 -50 -25 -58 -17
-3 3 6 10 19 15 31 13 39 13 39 2z m2022 -13 c-7 -7 -12 -8 -12 -2 0 14 12 26
19 19 2 -3 -1 -11 -7 -17z m-3868 -3 c-4 -8 -10 -15 -15 -15 -5 0 -9 7 -9 15
0 8 7 15 15 15 9 0 12 -6 9 -15z m1044 -2 c-5 -26 -38 -29 -38 -4 0 15 6 21
21 21 14 0 19 -5 17 -17z m2047 7 c3 -5 1 -10 -4 -10 -6 0 -11 5 -11 10 0 6 2
10 4 10 3 0 8 -4 11 -10z m607 -12 c-6 -6 -15 -8 -19 -4 -4 4 -1 11 7 16 19
12 27 3 12 -12z m-1102 2 c0 -5 -4 -10 -10 -10 -5 0 -10 5 -10 10 0 6 5 10 10
10 6 0 10 -4 10 -10z m230 1 c0 -6 -4 -13 -10 -16 -5 -3 -10 1 -10 9 0 9 5 16
10 16 6 0 10 -4 10 -9z m660 2 c0 -5 -18 -18 -40 -31 -22 -12 -40 -19 -40 -14
0 4 17 18 38 30 42 25 42 25 42 15z m145 -14 c-4 -5 -13 -9 -22 -9 -13 0 -13
3 -3 15 13 15 35 11 25 -6z m-940 2 c3 -5 1 -12 -5 -16 -5 -3 -10 1 -10 9 0
18 6 21 15 7z m1155 5 c0 -2 -7 -7 -16 -10 -8 -3 -12 -2 -9 4 6 10 25 14 25 6z
m-1060 -10 c0 -3 -4 -8 -10 -11 -5 -3 -10 -1 -10 4 0 6 5 11 10 11 6 0 10 -2
10 -4z m-975 -16 c-3 -5 -14 -10 -23 -9 -14 0 -13 2 3 9 27 11 27 11 20 0z
m845 0 c0 -5 -4 -10 -10 -10 -5 0 -10 5 -10 10 0 6 5 10 10 10 6 0 10 -4 10
-10z m100 0 c0 -5 -4 -10 -10 -10 -5 0 -10 5 -10 10 0 6 5 10 10 10 6 0 10 -4
10 -10z m100 6 c0 -3 -4 -8 -10 -11 -5 -3 -10 -1 -10 4 0 6 5 11 10 11 6 0 10
-2 10 -4z m-2270 -16 c0 -5 -4 -10 -10 -10 -5 0 -10 5 -10 10 0 6 5 10 10 10
6 0 10 -4 10 -10z m2240 6 c0 -3 -4 -8 -10 -11 -5 -3 -10 -1 -10 4 0 6 5 11
10 11 6 0 10 -2 10 -4z m82 -28 c-15 -15 -24 -6 -16 16 5 12 10 14 17 7 8 -8
8 -14 -1 -23z m878 22 c8 -5 11 -13 6 -17 -5 -4 -11 -2 -13 5 -3 6 -9 10 -14
6 -5 -3 -9 0 -9 5 0 13 10 14 30 1z m60 1 c0 -5 -7 -11 -15 -15 -15 -5 -20 5
-8 17 9 10 23 9 23 -2z m-1050 -10 c0 -12 -20 -25 -27 -18 -7 7 6 27 18 27 5
0 9 -4 9 -9z m-300 -22 c0 -5 -4 -9 -10 -9 -5 0 -10 7 -10 16 0 8 5 12 10 9 6
-3 10 -10 10 -16z m-694 -4 c-23 -18 -76 -20 -76 -4 0 7 10 9 25 7 14 -3 28
-1 31 3 3 5 13 9 22 9 15 -1 15 -2 -2 -15z m764 5 c0 -5 -4 -10 -10 -10 -5 0
-10 5 -10 10 0 6 5 10 10 10 6 0 10 -4 10 -10z m190 1 c0 -6 -4 -13 -10 -16
-5 -3 -10 1 -10 9 0 9 5 16 10 16 6 0 10 -4 10 -9z m110 -6 c0 -8 -7 -15 -15
-15 -16 0 -20 12 -8 23 11 12 23 8 23 -8z m-2234 -10 c9 -8 11 -15 6 -15 -5 0
-15 7 -22 15 -7 8 -9 15 -6 15 4 0 14 -7 22 -15z m2094 6 c0 -6 -4 -13 -10
-16 -5 -3 -10 1 -10 9 0 9 5 16 10 16 6 0 10 -4 10 -9z m-2143 -23 c-3 -8 -6
-5 -6 6 -1 11 2 17 5 13 3 -3 4 -12 1 -19z m1863 12 c0 -5 -2 -10 -4 -10 -3 0
-8 5 -11 10 -3 6 -1 10 4 10 6 0 11 -4 11 -10z m236 -17 c-10 -10 -19 5 -10
18 6 11 8 11 12 0 2 -7 1 -15 -2 -18z m974 17 c0 -5 -4 -10 -10 -10 -5 0 -10
5 -10 10 0 6 5 10 10 10 6 0 10 -4 10 -10z m290 -5 c-7 -9 -15 -13 -17 -11 -7
7 7 26 19 26 6 0 6 -6 -2 -15z m-2310 -4 c0 -6 -4 -13 -10 -16 -5 -3 -10 1
-10 9 0 9 5 16 10 16 6 0 10 -4 10 -9z m1020 -10 c0 -12 -20 -25 -27 -18 -7 7
6 27 18 27 5 0 9 -4 9 -9z m-2490 -27 c0 -8 -7 -14 -15 -14 -15 0 -21 21 -9
33 10 9 24 -2 24 -19z m50 11 c0 -8 -7 -15 -15 -15 -8 0 -15 7 -15 15 0 8 7
15 15 15 8 0 15 -7 15 -15z m2626 -11 c-11 -7 -22 -12 -25 -9 -2 3 4 12 15 19
10 8 21 12 24 9 3 -2 -4 -11 -14 -19z m853 -5 c-19 -12 -24 -2 -8 17 9 11 14
13 17 4 3 -7 -2 -16 -9 -21z m173 -11 c-6 -6 -9 0 -9 18 0 23 1 24 9 10 7 -12
7 -21 0 -28z m43 32 c-3 -5 -11 -10 -16 -10 -6 0 -7 5 -4 10 3 6 11 10 16 10
6 0 7 -4 4 -10z m-1295 -10 c0 -5 -4 -10 -10 -10 -5 0 -10 5 -10 10 0 6 5 10
10 10 6 0 10 -4 10 -10z m292 -22 c-6 -6 -15 -8 -19 -4 -4 4 -1 11 7 16 19 12
27 3 12 -12z m63 12 c3 -5 1 -10 -4 -10 -6 0 -11 5 -11 10 0 6 2 10 4 10 3 0
8 -4 11 -10z m-175 -9 c0 -6 -4 -13 -10 -16 -5 -3 -10 1 -10 9 0 9 5 16 10 16
6 0 10 -4 10 -9z m56 -28 c-10 -10 -19 5 -10 18 6 11 8 11 12 0 2 -7 1 -15 -2
-18z m954 12 c-17 -20 -1 -19 22 2 10 9 18 12 18 6 0 -5 -13 -19 -29 -31 l-30
-22 3 28 c4 33 4 32 17 32 8 0 8 -5 -1 -15z m-3465 -15 c3 -5 1 -10 -4 -10 -6
0 -11 5 -11 10 0 6 2 10 4 10 3 0 8 -4 11 -10z m-679 -11 c3 -6 1 -16 -5 -22
-9 -9 -14 -8 -21 3 -5 8 -10 18 -10 23 0 11 28 8 36 -4z m504 -4 c0 -8 -7 -15
-15 -15 -8 0 -15 7 -15 15 0 8 7 15 15 15 8 0 15 -7 15 -15z m50 5 c0 -5 -7
-10 -15 -10 -8 0 -15 5 -15 10 0 6 7 10 15 10 8 0 15 -4 15 -10z m470 -6 c0
-8 -4 -12 -10 -9 -5 3 -10 10 -10 16 0 5 5 9 10 9 6 0 10 -7 10 -16z m1734
-19 c-14 -14 -33 -25 -42 -25 -10 0 -23 -5 -28 -10 -6 -6 -19 -12 -30 -14 -10
-3 -45 -16 -76 -30 -32 -14 -58 -22 -58 -16 0 5 6 12 13 17 17 11 116 52 150
63 15 5 39 18 53 29 35 28 49 17 18 -14z m366 15 c0 -5 -5 -10 -11 -10 -5 0
-7 5 -4 10 3 6 8 10 11 10 2 0 4 -4 4 -10z m-2740 -16 c0 -8 -5 -12 -10 -9 -6
4 -8 11 -5 16 9 14 15 11 15 -7z m60 6 c0 -5 -4 -10 -10 -10 -5 0 -10 5 -10
10 0 6 5 10 10 10 6 0 10 -4 10 -10z m597 -12 c-3 -8 -6 -5 -6 6 -1 11 2 17 5
13 3 -3 4 -12 1 -19z m3068 3 c-3 -6 -10 -9 -15 -6 -4 3 -10 -2 -14 -10 -6
-15 -26 -21 -26 -7 0 9 53 42 58 37 2 -2 1 -9 -3 -14z m-2995 -1 c0 -5 -2 -10
-4 -10 -3 0 -8 5 -11 10 -3 6 -1 10 4 10 6 0 11 -4 11 -10z m1950 -4 c0 -13
-39 -30 -49 -21 -5 6 29 34 42 35 4 0 7 -6 7 -14z m250 10 c0 -11 -19 -15 -25
-6 -3 5 1 10 9 10 9 0 16 -2 16 -4z m-2760 -26 c0 -19 -11 -26 -23 -14 -8 8 3
34 14 34 5 0 9 -9 9 -20z m-330 0 c0 -5 -5 -10 -11 -10 -5 0 -7 5 -4 10 3 6 8
10 11 10 2 0 4 -4 4 -10z m220 -16 c0 -16 -16 -19 -25 -4 -8 13 4 32 16 25 5
-4 9 -13 9 -21z m60 11 c0 -8 -7 -15 -15 -15 -9 0 -12 6 -9 15 4 8 10 15 15
15 5 0 9 -7 9 -15z m2890 -5 c0 -5 -9 -6 -20 -3 -11 3 -20 9 -20 13 0 5 9 6
20 3 11 -3 20 -9 20 -13z m-3340 -11 c0 -5 -4 -9 -10 -9 -5 0 -10 7 -10 16 0
8 5 12 10 9 6 -3 10 -10 10 -16z m60 17 c0 -3 -4 -8 -10 -11 -5 -3 -10 -1 -10
4 0 6 5 11 10 11 6 0 10 -2 10 -4z m2880 -17 c0 -5 -4 -9 -10 -9 -5 0 -10 7
-10 16 0 8 5 12 10 9 6 -3 10 -10 10 -16z m-2656 3 c2 -4 1 -14 -4 -21 -10
-17 -31 -5 -23 14 6 16 19 20 27 7z m56 -7 c0 -8 -7 -15 -15 -15 -8 0 -15 7
-15 15 0 8 7 15 15 15 8 0 15 -7 15 -15z m446 -12 c34 -39 30 -49 -6 -15 -16
16 -30 32 -30 36 0 13 13 5 36 -21z m2220 0 c-10 -10 -19 5 -10 18 6 11 8 11
12 0 2 -7 1 -15 -2 -18z m984 23 c0 -3 -4 -8 -10 -11 -5 -3 -10 -1 -10 4 0 6
5 11 10 11 6 0 10 -2 10 -4z m-3760 -27 c0 -24 -23 -21 -28 4 -2 10 3 17 12
17 10 0 16 -9 16 -21z m1140 7 c0 -8 -7 -16 -15 -20 -17 -6 -18 -4 -9 18 8 20
24 21 24 2z m240 -6 c0 -11 -7 -20 -15 -20 -15 0 -21 21 -8 33 12 13 23 7 23
-13z m2100 10 c0 -5 -4 -10 -10 -10 -5 0 -10 5 -10 10 0 6 5 10 10 10 6 0 10
-4 10 -10z m-2392 -17 c-5 -25 -28 -28 -28 -4 0 12 6 21 16 21 9 0 14 -7 12
-17z m1652 1 c0 -8 -5 -12 -10 -9 -6 4 -8 11 -5 16 9 14 15 11 15 -7z m440 6
c0 -5 -2 -10 -4 -10 -3 0 -8 5 -11 10 -3 6 -1 10 4 10 6 0 11 -4 11 -10z
m-2910 -15 c0 -8 -7 -15 -15 -15 -16 0 -20 12 -8 23 11 12 23 8 23 -8z m2940
5 c0 -5 -2 -10 -4 -10 -3 0 -8 5 -11 10 -3 6 -1 10 4 10 6 0 11 -4 11 -10z
m-2998 -15 c0 -5 -5 -11 -11 -13 -6 -2 -11 4 -11 13 0 9 5 15 11 13 6 -2 11
-8 11 -13z m788 0 c0 -8 -7 -15 -15 -15 -8 0 -15 7 -15 15 0 8 7 15 15 15 8 0
15 -7 15 -15z m340 5 c0 -5 -7 -10 -15 -10 -8 0 -15 5 -15 10 0 6 7 10 15 10
8 0 15 -4 15 -10z m400 -10 c0 -5 -5 -10 -11 -10 -5 0 -7 5 -4 10 3 6 8 10 11
10 2 0 4 -4 4 -10z m30 6 c0 -3 -4 -8 -10 -11 -5 -3 -10 -1 -10 4 0 6 5 11 10
11 6 0 10 -2 10 -4z"/>
<path d="M1600 3510 c0 -6 7 -10 15 -10 8 0 15 2 15 4 0 2 -7 6 -15 10 -8 3
-15 1 -15 -4z"/>
<path d="M3370 2919 c0 -3 13 -6 29 -5 16 1 27 4 25 8 -6 9 -54 6 -54 -3z"/>
<path d="M118 2653 c7 -3 16 -2 19 1 4 3 -2 6 -13 5 -11 0 -14 -3 -6 -6z"/>
<path d="M3156 2686 c6 -15 34 -30 34 -18 0 4 -9 13 -20 19 -16 11 -18 10 -14
-1z"/>
<path d="M3050 2660 c0 -5 5 -10 11 -10 5 0 7 5 4 10 -3 6 -8 10 -11 10 -2 0
-4 -4 -4 -10z"/>
<path d="M1850 2440 c0 -5 7 -10 15 -10 8 0 15 5 15 10 0 6 -7 10 -15 10 -8 0
-15 -4 -15 -10z"/>
<path d="M4395 2430 c3 -5 8 -10 11 -10 2 0 4 5 4 10 0 6 -5 10 -11 10 -5 0
-7 -4 -4 -10z"/>
<path d="M1390 1960 c0 -19 3 -21 12 -12 9 9 9 15 0 24 -9 9 -12 7 -12 -12z"/>
<path d="M1598 1669 c-22 -12 -24 -39 -3 -39 8 0 15 3 16 8 0 4 2 15 4 25 2 9
3 17 2 17 -1 0 -10 -5 -19 -11z"/>
<path d="M1503 1653 c-18 -7 -16 -33 2 -33 8 0 15 9 15 20 0 11 -1 20 -2 19
-2 0 -9 -3 -15 -6z"/>
<path d="M1430 1536 c0 -29 10 -38 29 -27 18 11 10 45 -12 49 -12 3 -17 -3
-17 -22z"/>
<path d="M1640 1475 c0 -15 6 -25 14 -25 7 0 16 11 18 25 4 19 1 25 -13 25
-14 0 -19 -7 -19 -25z"/>
<path d="M1435 1445 c0 -14 6 -25 13 -25 6 0 12 11 12 25 0 14 -6 25 -12 25
-7 0 -13 -11 -13 -25z"/>
<path d="M1652 1390 c-10 -17 -10 -20 3 -20 8 0 15 9 15 20 0 11 -1 20 -3 20
-1 0 -8 -9 -15 -20z"/>
<path d="M1430 1345 c0 -8 7 -15 15 -15 8 0 15 7 15 15 0 8 -7 15 -15 15 -8 0
-15 -7 -15 -15z"/>
<path d="M1710 1335 c0 -8 4 -15 10 -15 5 0 7 7 4 15 -4 8 -8 15 -10 15 -2 0
-4 -7 -4 -15z"/>
<path d="M1340 1275 c0 -14 4 -25 9 -25 4 0 6 11 3 25 -2 14 -6 25 -8 25 -2 0
-4 -11 -4 -25z"/>
<path d="M1443 1293 c-18 -7 -16 -43 2 -43 9 0 15 9 15 25 0 14 -1 25 -2 24
-2 0 -9 -3 -15 -6z"/>
<path d="M1640 1289 c0 -5 5 -7 10 -4 6 3 10 8 10 11 0 2 -4 4 -10 4 -5 0 -10
-5 -10 -11z"/>
<path d="M1710 1250 c0 -5 5 -10 10 -10 6 0 10 5 10 10 0 6 -4 10 -10 10 -5 0
-10 -4 -10 -10z"/>
<path d="M1640 1210 c0 -5 5 -10 10 -10 6 0 10 5 10 10 0 6 -4 10 -10 10 -5 0
-10 -4 -10 -10z"/>
<path d="M1493 1155 c0 -22 2 -30 4 -17 2 12 2 30 0 40 -3 9 -5 -1 -4 -23z"/>
<path d="M1440 1170 c-13 -8 -12 -10 3 -10 9 0 17 5 17 10 0 12 -1 12 -20 0z"/>
<path d="M1645 1147 c-8 -19 -2 -31 13 -26 5 2 6 13 2 24 -7 19 -8 19 -15 2z"/>
<path d="M1284 1115 c-4 -9 -2 -21 5 -28 6 -6 11 -9 12 -6 0 2 2 12 4 21 4 24
-13 34 -21 13z"/>
<path d="M1430 1095 c0 -18 4 -23 15 -19 17 7 17 7 9 28 -9 24 -24 19 -24 -9z"/>
<path d="M1221 1094 c0 -11 3 -14 6 -6 3 7 2 16 -1 19 -3 4 -6 -2 -5 -13z"/>
<path d="M1198 874 c-5 -4 -8 -16 -8 -28 0 -14 3 -17 11 -9 6 6 9 19 7 28 -1
9 -6 13 -10 9z"/>
<path d="M1230 866 c0 -8 5 -18 10 -21 6 -3 10 3 10 14 0 12 -4 21 -10 21 -5
0 -10 -6 -10 -14z"/>
<path d="M3940 4450 c0 -5 7 -10 16 -10 8 0 12 5 9 10 -3 6 -10 10 -16 10 -5
0 -9 -4 -9 -10z"/>
<path d="M2291 3423 c-1 -67 2 -83 14 -83 8 0 12 6 9 14 -3 8 -9 45 -13 83
l-8 68 -2 -82z"/>
<path d="M4475 169 c-18 -7 -18 -8 -2 -8 10 -1 15 -6 12 -11 -4 -6 -11 -8 -16
-5 -5 4 -22 -3 -38 -14 -16 -12 -33 -21 -38 -21 -6 0 -18 -9 -28 -20 -10 -11
-22 -20 -27 -20 -5 0 -17 -7 -25 -16 -13 -13 -14 -17 -3 -24 7 -4 9 -13 6 -19
-5 -7 7 -11 36 -11 32 0 46 5 56 20 9 15 23 20 53 20 33 0 39 3 30 13 -7 9 -7
17 0 24 6 6 9 30 7 55 -3 41 -5 44 -23 37z"/>
<path d="M4424 15 c-10 -8 -14 -15 -8 -15 6 0 17 7 24 15 16 19 9 19 -16 0z"/>
</g>
</svg>
